<?xml version="1.0" encoding="iso-8859-1"?>
<!-- Generator: Adobe Illustrator 19.0.0, SVG Export Plug-In . SVG Version: 6.00 Build 0)  -->
<svg version="1.1" id="Capa_1" xmlns="http://www.w3.org/2000/svg" xmlns:xlink="http://www.w3.org/1999/xlink" x="0px" y="0px"
	 viewBox="0 0 516 516" style="enable-background:new 0 0 516 516;" xml:space="preserve">
<g>
	<rect x="1.6" y="489.6" style="fill:#193651;" width="16" height="16"/>
	<rect x="49.6" y="489.6" style="fill:#193651;" width="16" height="16"/>
	<rect x="96.8" y="489.6" style="fill:#193651;" width="16" height="16"/>
	<rect x="144.8" y="489.6" style="fill:#193651;" width="16" height="16"/>
	<rect x="192.8" y="489.6" style="fill:#193651;" width="16" height="16"/>
	<rect x="240" y="489.6" style="fill:#193651;" width="16" height="16"/>
	<rect x="489.6" y="1.6" style="fill:#193651;" width="16" height="16"/>
	<rect x="489.6" y="49.6" style="fill:#193651;" width="16" height="16"/>
	<rect x="489.6" y="96.8" style="fill:#193651;" width="16" height="16"/>
	<rect x="489.6" y="144.8" style="fill:#193651;" width="16" height="16"/>
	<rect x="489.6" y="192.8" style="fill:#193651;" width="16" height="16"/>
	<rect x="489.6" y="240" style="fill:#193651;" width="16" height="16"/>
</g>
<path style="fill:#FFFFFF;" d="M361.6,228.8c3.2-18.4,2.4-37.6-0.8-56l35.2-22.4L373.6,100l-40.8,10.4C321.6,95.2,308,81.6,292,71.2
	l8.8-41.6l-50.4-20l-21.6,36.8c-18.4-3.2-37.6-2.4-56,0.8L150.4,12L99.2,33.6l10.4,40.8c-15.2,11.2-28.8,24.8-39.2,40.8l-41.6-8.8
	L9.6,157.6l36.8,21.6c-3.2,18.4-2.4,37.6,0.8,56l-36,22.4L33.6,308l40.8-10.4c11.2,15.2,24.8,28.8,40.8,39.2l-8.8,40.8l51.2,20
	l21.6-36.8c18.4,3.2,37.6,2.4,56-0.8l22.4,35.2l50.4-22.4l-10.4-40c15.2-11.2,28.8-24.8,39.2-40.8l41.6,8.8l20-51.2L361.6,228.8z"/>
<g>
	<path style="fill:#F16051;" d="M312.8,161.6h-29.6c2.4,13.6,4,27.2,4,42.4s-1.6,28.8-4,42.4h29.6c4.8-12.8,8-27.2,8-42.4
		S318.4,174.4,312.8,161.6z"/>
	<path style="fill:#F16051;" d="M304,143.2c-11.2-18.4-27.2-33.6-45.6-43.2c8.8,12,16,26.4,20.8,43.2H304z"/>
	<path style="fill:#F16051;" d="M258.4,307.2c19.2-10.4,35.2-24.8,45.6-43.2h-24.8C274.4,280.8,267.2,296,258.4,307.2z"/>
	<path style="fill:#F16051;" d="M103.2,264c11.2,18.4,27.2,33.6,45.6,43.2c-8.8-12-16-26.4-20.8-43.2H103.2z"/>
	<path style="fill:#F16051;" d="M120,204c0-15.2,1.6-28.8,4-42.4H94.4c-4.8,12.8-8,27.2-8,42.4s3.2,28.8,8,42.4H124
		C121.6,232.8,120,218.4,120,204z"/>
	<path style="fill:#F16051;" d="M149.6,100c-19.2,10.4-35.2,24.8-45.6,43.2h24.8C133.6,126.4,140.8,112,149.6,100z"/>
	<path style="fill:#F16051;" d="M212.8,88v56H260C249.6,114.4,232.8,92.8,212.8,88z"/>
	<path style="fill:#F16051;" d="M212.8,264v56c20-4.8,36.8-26.4,47.2-56H212.8z"/>
	<path style="fill:#F16051;" d="M137.6,204c0,15.2,1.6,28.8,4.8,42.4h52v-84.8h-52C139.2,174.4,137.6,188.8,137.6,204z"/>
	<path style="fill:#F16051;" d="M194.4,320v-56h-47.2C157.6,293.6,175.2,314.4,194.4,320z"/>
	<path style="fill:#F16051;" d="M148,143.2h47.2v-56C175.2,92.8,157.6,114.4,148,143.2z"/>
	<path style="fill:#F16051;" d="M269.6,204c0-15.2-1.6-28.8-4.8-42.4h-52v84.8h52C268,232.8,269.6,218.4,269.6,204z"/>
</g>
<path style="fill:#FDBF5E;" d="M481.6,394.4c1.6-12,1.6-24.8-0.8-36.8l23.2-15.2l-14.4-33.6l-27.2,7.2
	c-7.2-10.4-16.8-19.2-26.4-25.6l5.6-27.2L408,249.6l-14.4,24c-12-1.6-24.8-1.6-36.8,0.8l-15.2-23.2l-32.8,14.4l7.2,27.2
	c-10.4,7.2-19.2,16.8-25.6,26.4l-27.2-5.6l-13.6,33.6l24,14.4c-1.6,12-1.6,24.8,0.8,36.8l-23.2,15.2l14.4,33.6l27.2-7.2
	c7.2,10.4,16.8,19.2,26.4,25.6l-5.6,26.4l33.6,13.6l14.4-24c12,1.6,24.8,1.6,36.8-0.8l15.2,23.2l33.6-14.4l-7.2-27.2
	c10.4-7.2,19.2-16.8,25.6-26.4l27.2,5.6l13.6-33.6L481.6,394.4z"/>
<path style="fill:#193651;" d="M490.4,389.6c0.8-9.6,0.8-19.2-0.8-28.8l24.8-16l-20-45.6l-28.8,7.2c-6.4-7.2-12.8-14.4-20.8-20
	l6.4-28.8l-46.4-18.4l-2.4,4L369.6,224c2.4-16,1.6-32-0.8-48l36.8-23.2l-27.2-63.2L336,100.8c-9.6-12.8-21.6-24-34.4-33.6l9.6-42.4
	L247.2,0l-22.4,37.6c-16-2.4-32-1.6-48,0.8l-24-36.8L89.6,28.8l11.2,42.4c-12.8,9.6-24,21.6-33.6,34.4L24.8,96L0,160l37.6,22.4
	c-2.4,16-1.6,32,0.8,48l-36.8,24l27.2,63.2l42.4-11.2c9.6,12.8,21.6,24,34.4,33.6L96,382.4l64,24.8l22.4-37.6c16,2.4,32,1.6,48-0.8
	l21.6,33.6l-12,7.2l20,45.6l28-7.2c6.4,7.2,12.8,14.4,20.8,20l-4.8,29.6l46.4,18.4l15.2-25.6c9.6,0.8,19.2,0.8,28.8-0.8l16,24.8
	l45.6-20l-7.2-28.8c7.2-6.4,14.4-12.8,20-20.8l28.8,6.4l18.4-46.4L490.4,389.6z M233.6,352.8c-17.6,3.2-36,4-53.6,0.8l-5.6-0.8
	L153.6,388l-38.4-15.2l8.8-40l-4.8-3.2c-15.2-10.4-28-22.4-38.4-36.8l-3.2-4.8l-39.2,10.4l-16.8-37.6L56,238.4l-0.8-4.8
	c-3.2-17.6-4-35.2-0.8-53.6l0.8-5.6l-36-20.8l15.2-38.4l40,8.8l3.2-4.8C88,104,100,91.2,114.4,80.8l4.8-3.2l-10.4-39.2l37.6-16.8
	L168.8,56l5.6-0.8c17.6-3.2,36-4,53.6-0.8l5.6,0.8L254.4,20l38.4,15.2l-8.8,40l4.8,3.2c15.2,10.4,28,22.4,38.4,36.8l3.2,4.8
	l39.2-10.4l16.8,37.6L352,169.6l0.8,5.6c3.2,17.6,4,36,0.8,53.6l-0.8,5.6l35.2,20.8l-4,11.2c-7.2,0-15.2,0-22.4,0.8l-16-24.8
	l-45.6,20l7.2,28c-7.2,6.4-14.4,12.8-20,20.8l-28.8-6.4L240,351.2l25.6,15.2c-0.8,6.4-0.8,12.8-0.8,18.4l-4,0.8l-22.4-34.4
	L233.6,352.8z M265.6,392c0,0.8,0,1.6,0,2.4l0,0V392z M487.2,432.8l-25.6-5.6l-3.2,4.8c-6.4,9.6-14.4,17.6-24,24.8l-4.8,3.2
	l6.4,25.6l-20.8,8.8L400.8,472l-5.6,0.8c-11.2,2.4-23.2,2.4-34.4,0.8l-5.6-0.8L341.6,496l-20.8-8l5.6-25.6l-4.8-3.2
	c-9.6-6.4-17.6-14.4-24.8-24l-3.2-4.8l-25.6,6.4l-8.8-20.8l22.4-14.4l-0.8-5.6c-2.4-11.2-2.4-23.2-0.8-34.4l0.8-5.6l-23.2-13.6
	l8-20.8l25.6,5.6l3.2-4.8c6.4-9.6,14.4-17.6,24-24.8l4.8-3.2l-6.4-25.6l20.8-8.8l14.4,22.4l5.6-0.8c11.2-2.4,23.2-2.4,34.4-0.8
	l5.6,0.8l13.6-23.2l20.8,8l-5.6,25.6l4.8,3.2c9.6,6.4,17.6,14.4,24.8,24l3.2,4.8l25.6-6.4l8.8,20.8L472,353.6l0.8,5.6
	c2.4,11.2,2.4,23.2,0.8,34.4l-0.8,5.6l23.2,13.6L487.2,432.8z"/>
<circle style="fill:#FFFFFF;" cx="377.6" cy="377.6" r="50.4"/>
<path style="fill:#193651;" d="M377.6,436c-32.202,0-58.4-26.198-58.4-58.4s26.198-58.4,58.4-58.4s58.4,26.198,58.4,58.4
	S409.802,436,377.6,436z M377.6,335.2c-23.38,0-42.4,19.021-42.4,42.4s19.021,42.4,42.4,42.4s42.4-19.021,42.4-42.4
	S400.98,335.2,377.6,335.2z"/>
<g>
</g>
<g>
</g>
<g>
</g>
<g>
</g>
<g>
</g>
<g>
</g>
<g>
</g>
<g>
</g>
<g>
</g>
<g>
</g>
<g>
</g>
<g>
</g>
<g>
</g>
<g>
</g>
<g>
</g>
</svg>
