<svg id="Capa_1" enable-background="new 0 0 513.5 513.5" height="512" viewBox="0 0 513.5 513.5" width="512" xmlns="http://www.w3.org/2000/svg"><g><path d="m486 96.5c11.046 0 20 8.954 20 20v280.5c0 11.046-8.954 20-20 20h-458.5c-11.046 0-20-8.954-20-20v-280.5c0-11.046 8.954-20 20-20z" fill="#ffc682"/><path d="m49.5 417h-22c-11.05 0-20-8.95-20-20v-280.5c0-11.05 8.95-20 20-20h22c-11.05 0-20 8.95-20 20v280.5c0 11.05 8.95 20 20 20z" fill="#ffac5c"/><g fill="#fff"><path d="m456 324.5h-110c-4.143 0-7.5-3.357-7.5-7.5s3.357-7.5 7.5-7.5h110c4.143 0 7.5 3.357 7.5 7.5s-3.357 7.5-7.5 7.5z"/><path d="m456 355.5h-19.5c-4.143 0-7.5-3.357-7.5-7.5s3.357-7.5 7.5-7.5h19.5c4.143 0 7.5 3.357 7.5 7.5s-3.357 7.5-7.5 7.5z"/><path d="m401.5 355.5h-55.5c-4.143 0-7.5-3.357-7.5-7.5s3.357-7.5 7.5-7.5h55.5c4.143 0 7.5 3.357 7.5 7.5s-3.357 7.5-7.5 7.5z"/></g><path d="m208 96.5h41v320.5h-41z" fill="#50758d"/><path d="m7.5 199h498.5v41h-498.5z" fill="#50758d"/><path d="m210.36 245.86-19.35 9.51-45.65 22.43c-6.83 3.36-14.39 5.11-21.99 4.7-21.01-1.11-38.87-16.57-38.87-38.87v-50.98c0-20.53 15.14-35.26 33.94-38.34 8.41-1.38 17.02-.12 24.82 3.26l31.36 15.89 15.8 8.06 18.93 9.66c-8.02 6.25-13.18 16-13.18 26.96 0 11.41 5.59 21.52 14.19 27.72z" fill="#fd646f"/><path d="m375.5 192.65v50.98c0 22.3-17.86 37.76-38.87 38.87-7.6.41-15.16-1.34-21.99-4.7l-45.19-22.22-19.41-9.54c8.74-6.18 14.45-16.37 14.45-27.9 0-11.07-5.27-20.92-13.44-27.16l18.99-9.69 44.2-22.56c8.44-4.23 18-5.95 27.32-4.42 18.8 3.08 33.94 17.81 33.94 38.34z" fill="#fd646f"/><path d="m210.36 245.86-19.35 9.51c-9.42-9.96-14.84-23.3-14.84-37.23 0-13.77 5.1-26.71 14.25-36.62l18.93 9.66c-8.02 6.25-13.18 16-13.18 26.96 0 11.41 5.59 21.52 14.19 27.72z" fill="#fc4755"/><path d="m284.49 218.14c0 14.05-5.49 27.45-15.04 37.44l-19.41-9.54c8.74-6.18 14.45-16.37 14.45-27.9 0-11.07-5.27-20.92-13.44-27.16l18.99-9.69c9.27 9.93 14.45 22.95 14.45 36.85z" fill="#fc4755"/><path d="m264.49 218.14c0 11.53-5.71 21.72-14.45 27.9-5.57 3.95-12.37 6.26-19.71 6.26-7.45 0-14.35-2.39-19.97-6.44-8.6-6.2-14.19-16.31-14.19-27.72 0-10.96 5.16-20.71 13.18-26.96 5.79-4.51 13.07-7.2 20.98-7.2 7.79 0 14.98 2.61 20.72 7 8.17 6.24 13.44 16.09 13.44 27.16z" fill="#fd646f"/><path d="m7.5 199h22v41h-22z" fill="#2b597f"/></g><g><path d="m456 309.5h-110c-4.143 0-7.5 3.357-7.5 7.5s3.357 7.5 7.5 7.5h110c4.143 0 7.5-3.357 7.5-7.5s-3.357-7.5-7.5-7.5z"/><path d="m456 340.5h-19.5c-4.143 0-7.5 3.357-7.5 7.5s3.357 7.5 7.5 7.5h19.5c4.143 0 7.5-3.357 7.5-7.5s-3.357-7.5-7.5-7.5z"/><path d="m401.5 340.5h-55.5c-4.143 0-7.5 3.357-7.5 7.5s3.357 7.5 7.5 7.5h55.5c4.143 0 7.5-3.357 7.5-7.5s-3.357-7.5-7.5-7.5z"/><path d="m486 89h-47.5c-4.143 0-7.5 3.357-7.5 7.5s3.357 7.5 7.5 7.5h47.5c6.893 0 12.5 5.607 12.5 12.5v75h-115.526c-.541-22.524-16.912-40.778-40.201-44.593-10.7-1.753-21.732.018-31.942 5.145l-54.331 27.721v-75.773h147c4.143 0 7.5-3.357 7.5-7.5s-3.357-7.5-7.5-7.5h-376c-15.164 0-27.5 12.336-27.5 27.5v280.5c0 15.164 12.336 27.5 27.5 27.5h458.5c15.164 0 27.5-12.336 27.5-27.5v-280.5c0-15.164-12.336-27.5-27.5-27.5zm12.5 143.5h-115.5v-26h115.5zm-180.895-67.065c7.216-3.623 15.291-4.943 22.744-3.725 13.763 2.255 27.65 12.695 27.65 30.938v50.983c0 19.494-15.982 30.543-31.771 31.383-6.051.317-12.376-1.042-18.281-3.944l-55.016-27.048c11.67-13.699 11.961-37.006.603-50.999zm-113.938 52.705c0-14.699 11.959-26.658 26.659-26.658 14.573-.023 26.666 11.897 26.659 26.658.02 14.777-12.128 26.687-26.659 26.659-14.7 0-26.659-11.959-26.659-26.659zm37.833-40.124c-8.286-2.403-18.059-1.928-26 1.202v-75.218h26zm-214-74.016h173v74.243l-22.475-11.467c-3.688-1.881-8.207-.418-10.09 3.271-1.883 3.69-.418 8.207 3.271 10.09l25.724 13.125c-11.117 13.919-10.825 36.904.606 50.529l-55.486 27.279c-5.903 2.902-12.228 4.266-18.281 3.944-15.787-.839-31.769-11.888-31.769-31.382-.009-5.123.016-47.118 0-50.983 0-18.243 13.888-28.684 27.65-30.938 6.781-1.108 13.919-.162 20.634 2.74 3.805 1.645 8.217-.105 9.86-3.909 1.644-3.802-.106-8.216-3.909-9.86-9.356-4.045-19.387-5.349-29.01-3.773-23.288 3.815-39.659 22.068-40.2 44.593h-62.025v-75c0-6.895 5.607-12.502 12.5-12.502zm-12.5 128.5v-26h62v26zm0 164.5v-149.5h62.172c1.919 23.193 20.959 41.172 45.802 42.493.844.045 1.69.067 2.539.067 7.807 0 15.761-1.893 23.156-5.529l51.831-25.482v150.451h-173c-6.893 0-12.5-5.607-12.5-12.5zm471 12.5h-229.5v-35c0-4.143-3.357-7.5-7.5-7.5s-7.5 3.357-7.5 7.5v35h-26v-152.437c7.941 3.129 17.715 3.605 26 1.202v81.235c0 4.143 3.357 7.5 7.5 7.5s7.5-3.357 7.5-7.5v-81.926l54.831 26.957c8.221 4.024 16.944 5.91 25.695 5.462 24.843-1.321 43.883-19.3 45.802-42.493h115.672v149.5c0 6.893-5.607 12.5-12.5 12.5z"/></g></svg>