<?xml version="1.0" encoding="utf-8"?>
<!-- Generator: Adobe Illustrator 24.0.0, SVG Export Plug-In . SVG Version: 6.00 Build 0)  -->
<svg version="1.1" id="Layer_1" xmlns="http://www.w3.org/2000/svg" xmlns:xlink="http://www.w3.org/1999/xlink" x="0px" y="0px"
	 viewBox="0 0 512 512" enable-background="new 0 0 512 512" xml:space="preserve">
<path fill="#555555" d="M25.5,191.5l140-26l-40-38c0,0,40.5-46.5,118.5-53.5c0,0,146-11,188,139c0,0,39,157-118,213
	c0,0-87,35-176-30c0,0-66-59-60-140l-53,10c0,0-3,116,112,188c0,0,115,70,234,0c0,0,137-73,114-242c0,0-27-160-196-186
	c0,0-121-18-198,64L49,50L25.5,191.5z"/>
<path fill="#555555" d="M246,135l-98,57v117l123,71l97-57V206L246,135z M247,154l96,58l-19,13l-96-59L247,154z M262,355l-96-56v-87
	l96,55V355z M177,196l19-12l96,58l-19,13L177,196z M351,314l-72,41v-88l20-11v31l35-19v-31l17-9V314z"/>
<polygon fill="#555555" points="296,310 300,307 300,325 296,328 "/>
<polygon fill="#555555" points="303,306 307,303 307,321 303,324 "/>
<polygon fill="#555555" points="311,302 315,299 315,317 311,320 "/>
<polygon fill="#555555" points="317,298 321,295 321,313 317,316 "/>
<polygon fill="#555555" points="323,295 327,292 327,310 323,313 "/>
<polygon fill="#555555" points="332,289 336,286 336,304 332,307 "/>
</svg>
