<?xml version="1.0" encoding="utf-8"?>
<!-- Generator: Adobe Illustrator 24.0.0, SVG Export Plug-In . SVG Version: 6.00 Build 0)  -->
<svg version="1.1" id="Layer_1" xmlns="http://www.w3.org/2000/svg" xmlns:xlink="http://www.w3.org/1999/xlink" x="0px" y="0px"
	 viewBox="0 0 512 512" style="enable-background:new 0 0 512 512;" xml:space="preserve">
<style type="text/css">
	.st0{fill:#FFFFFF;}
</style>
<g>
	<path class="st0" d="M387.6,104.6H178.6l17.5-42.8c3.7-9.1,1-19.6-6.7-25.7c-7.7-6.2-18.5-6.5-26.6-0.9L21.3,133.5
		c-6.2,4.3-9.8,11.5-9.6,19c0.2,7.5,4.3,14.4,10.7,18.4l147.9,89.8c8.4,5.1,19.2,4.1,26.5-2.5c7.3-6.6,9.4-17.3,5.2-26.2l-19.4-41.1
		h204.9c15.1,0,27.4,12.5,27.4,27.7v149.9c0,15.1-12.3,27.2-27.4,27.2H160.8c-20.2,0-36.6,16.4-36.6,36.6v12.9
		c0,20.2,16.4,36.6,36.6,36.6h226.7c62.6,0,113.6-50.7,113.6-113.4V218.5C501.2,155.8,450.2,104.6,387.6,104.6z"/>
</g>
</svg>
