<?xml version="1.0" encoding="utf-8"?>
<!-- Generator: Adobe Illustrator 16.0.0, SVG Export Plug-In . SVG Version: 6.00 Build 0)  -->
<!DOCTYPE svg PUBLIC "-//W3C//DTD SVG 1.1//EN" "http://www.w3.org/Graphics/SVG/1.1/DTD/svg11.dtd">
<svg version="1.1" id="Layer_1" xmlns="http://www.w3.org/2000/svg" xmlns:xlink="http://www.w3.org/1999/xlink" x="0px" y="0px"
	 width="150px" height="150px" viewBox="0 0 150 150" enable-background="new 0 0 150 150" xml:space="preserve">
<path d="M106.831,45.556L110.64,42H41c0,0-6,0.5-7,6.167V103c0,0,0.167,6.5,8,7h46l17,12.834V110h11c0,0,7,0,7-6.833V58l-3.833,3.5
	L119,100.667c0,0,0.5,5-4.5,5.5l-13.333,0.167l-0.5,8.416L89.333,106H42c0,0-4-0.167-4.167-4.5L38,49.167c0,0,1.5-4.167,5-4.167
	L106.831,45.556z"/>
<path d="M91.5,62.667l2.833,2.667L118.167,42c0,0,1.832-2.333,3.666-0.833l3.334,3.333c0,0,1.5,1.5,0,2.667l-24.334,24.167
	l2.834,2.833l24.833-24.5c0,0,3-2.667,0-6.667l-5.5-5.667c0,0-3.334-3-7.167,0.833L91.5,62.667z"/>
<polygon points="96.167,66.833 98.333,69.333 123,45.333 120.5,42.833 "/>
<path d="M93.667,66.333l-2,4.667l3.166,3l4.5-1.667l3.5,3.333l-12.5,3c0,0-3.834,0.5-3-3.5l3.334-11.833L93.667,66.333z"/>
<rect x="53" y="61" width="37" height="2"/>
<rect x="53" y="69" width="33" height="2"/>
<rect x="53" y="80" width="33" height="2"/>
<rect x="93" y="80" width="13" height="2"/>
<rect x="53" y="89" width="53" height="2"/>
</svg>
