<?xml version="1.0" standalone="no"?>
<!DOCTYPE svg PUBLIC "-//W3C//DTD SVG 1.1//EN" "http://www.w3.org/Graphics/SVG/1.1/DTD/svg11.dtd" >
<svg xmlns="http://www.w3.org/2000/svg">
<metadata>Generated by IcoMoon</metadata>
<defs>
<font id="icomoon" horiz-adv-x="1024">
<font-face units-per-em="1024" ascent="960" descent="-64" />
<missing-glyph horiz-adv-x="1024" />
<glyph unicode="&#x20;" horiz-adv-x="512" d="" />
<glyph unicode="&#xe900;" glyph-name="website" d="M238 672v-442h548v442h-548zM762 254h-498v396h498v-396zM308 436h188v-26h-188v26zM308 382h188v-22h-188v22zM308 338h188v-26h-188v26zM308 604v-128h416v128h-416zM706 496h-378v94h378v-94zM530 436v-124h194v124h-194zM706 332h-154v84h154v-84z" />
<glyph unicode="&#xe901;" glyph-name="settings" d="M762 395.468l-50.068 41.028c4.174 11.122 1.39 45.898 1.39 45.898l53.994 35.464c12.274 8.344 4.418 26.424 4.418 26.424l-52.848 91.792c-9.734 13.212-27.818 6.956-27.818 6.956l-59.108-24.34c-11.826 11.126-39.638 22.254-39.638 22.254l-9.038 56.294c-3.476 22.25-21.558 18.762-21.558 18.762h-103.614c-19.472 0-19.47-18.406-19.47-18.406l-8.346-55.61c-6.39-0.2-38.246-23.118-38.246-23.118l-55.632 24.948c-25.036 7.65-33.38-10.484-33.38-10.484l-47.982-84.184c-11.126-19.47 3.124-32.042 3.124-32.042l53.204-39.028c-3.478-13.906 0-46.072 0-46.072l-53.204-38.59c-14.262-9.042-4.514-32.682-4.514-32.682l50.068-81.364c9.040-16.688 28.512-10.43 28.512-10.43l59.108 24.34c15.298-11.124 37.55-22.946 37.55-22.946l9.738-68.846c1.392-15.992 20.166-20.186 20.166-20.186l104.306 0.016c15.994-0.696 22.256 22.948 22.256 22.948l6.258 62.578c15.3 5.566 40.332 27.108 40.332 27.108l54.936-24.336c20.864-9.042 31.99 6.952 31.99 6.952l51.458 89.008c6.26 17.384-8.344 29.894-8.344 29.894zM750.196 360.424l-44.33-70.386c0 0-3.32-11.784-14.796-5.002l-61.328 29.418c0 0-30.368-32.404-53.314-35.142l-7.516-72.028c0 0 0-11.494-14.602-11.494l-88.546 1.256c0 0-10.526-3.844-13.134 14.932l-6.568 67.24c0 0-41.318 25.656-51.228 33.48l-66.756-26.090c0 0-3.438-7.518-15.956 11.78l-40.99 69.458c0 0-6.354 11.476 5.642 19.296l52.772 38.692c0 0-11.264 43.758-1.092 61.348l-55.792 42.15c0 0-5.554 3.224-2.948 12.090l49.58 86.15c0 0 3.974 7.706 23.272-3.768l48.492-23.47c0 0 42.482 30.656 55 32.336l7.612 59.572c0 0-3.032 8.44 14.18 7.398s96.486 0.068 96.486 0.068 3.448-0.12 6.354-11.638l7.090-56.328c0 0 34.018-13.986 53.836-30.674l61.022 25.342c0 0 11.048 8.462 18.35-6.664l45.896-80.318c0 0 6.992-7.396-3.438-11.568l-56.542-34.518c0 0 3.96-42.054-2.298-63.438l58.53-46.842c-0.004 0.002 5.926-9.6-2.94-22.638zM508.53 551.948c-54.152 0-98.050-43.9-98.050-98.050s43.9-98.050 98.050-98.050c54.15 0 98.050 43.898 98.050 98.050s-43.9 98.050-98.050 98.050zM508.53 371.088c-47.816 0-82.81 34.994-82.81 82.81s34.994 82.808 82.81 82.808c47.814 0 82.808-34.994 82.808-82.808s-34.994-82.81-82.808-82.81z" />
<glyph unicode="&#xe902;" glyph-name="surveys" d="M642 477.536c0-6.696-6.686-9.536-15.948-9.536h-245.24c-9.264 0-18.812 2.84-18.812 9.536v1.478c0 6.696 9.548 10.986 18.812 10.986h245.24c9.262 0 15.948-4.292 15.948-10.986v-1.478zM530 335.502c0-5.514-2.064-9.502-7.66-9.502h-148.168c-5.598 0-12.172 3.988-12.172 9.502v1.214c0 5.514 6.574 9.284 12.172 9.284h148.168c5.596 0 7.66-3.77 7.66-9.284v-1.214zM758 564.938v89.516c0 40.648-38.060 41.546-38.060 41.546h-427.082c-44.234 0-44.858-48.018-44.858-48.018v-412.056c0-43.66 44.858-49.926 44.858-49.926h428.136c34.626 0 39.922 41.804 39.922 41.804l-1.254 218.358 29.9 38.1c42.146 58.714-31.562 80.676-31.562 80.676zM270 654.454c2 22.552 30.952 23.546 30.952 23.546h407.25c31.356 0 31.798-30.018 31.798-30.018v-41.982h-470v48.454zM742 238.694c0 0-4.118-28.694-31.542-28.694h-411.668c0 0-26.79 4.842-30.79 31.946v340.054h472v-26.414l-138.728-139.088-219.328 1.258c0 0-18.014 0.628-16.944-10.42 0 0-1.098-12.618 18.788-10.94l203.508-1.258-16.846-47.502c0 0-4.516-21.22 19.57-19.72l60.916 10.46 91.064 84.23v-183.912zM642.888 355.494l-50.892-7.704 17.466 49.702 102.834 103.802 37.426-37.196-106.834-108.604zM783.252 504.136l-21.728-28.074-37.712 34.748 19.566 22.532c21.31 21.368 34.684-1.194 34.684-1.194 15.942-10.524 5.19-28.012 5.19-28.012zM322.516 638.342c0-7.371-5.975-13.346-13.346-13.346s-13.346 5.975-13.346 13.346c0 7.371 5.975 13.346 13.346 13.346s13.346-5.975 13.346-13.346zM369.97 638.342c0-7.371-5.975-13.346-13.346-13.346s-13.346 5.975-13.346 13.346c0 7.371 5.975 13.346 13.346 13.346s13.346-5.975 13.346-13.346zM417.424 638.342c0-7.371-5.975-13.346-13.346-13.346s-13.346 5.975-13.346 13.346c0 7.371 5.975 13.346 13.346 13.346s13.346-5.975 13.346-13.346z" />
<glyph unicode="&#xe903;" glyph-name="sales" d="M275.692 186.53v161.376c0 7.044-6.792 12.758-15.164 12.758-8.376 0-15.162-5.712-15.162-12.758v-161.376c0-7.046 6.786-12.76 15.162-12.76 8.374 0 15.164 5.712 15.164 12.76zM527.178 189.408v197.806c0 8.634-6.792 15.636-15.166 15.636-8.376 0-15.162-7.002-15.162-15.636v-197.806c0-8.636 6.786-15.638 15.162-15.638 8.374 0 15.166 7.002 15.166 15.638zM399.47 191.924v229.638c0 10.024-6.792 18.152-15.164 18.152-8.376 0-15.162-8.128-15.162-18.152v-229.638c0-10.026 6.786-18.154 15.162-18.154 8.374 0 15.164 8.128 15.164 18.154zM653.566 194.532v262.606c0 11.462-6.792 20.756-15.164 20.756-8.376 0-15.162-9.294-15.162-20.756v-262.606c0-11.464 6.786-20.762 15.162-20.762 8.374 0 15.164 9.296 15.164 20.762zM782.59 196.958v293.3c0 12.802-6.792 23.184-15.166 23.184s-15.162-10.38-15.162-23.184v-293.3c0-12.804 6.788-23.188 15.162-23.188s15.166 10.382 15.166 23.188zM263.424 406.506l104.252 123.186c4.55 5.376 3.056 14.124-3.334 19.534-6.394 5.412-15.264 5.434-19.814 0.056l-104.252-123.184c-4.552-5.376-3.064-14.122 3.332-19.534 6.39-5.41 15.264-5.436 19.816-0.058zM347.852 524.44l149.196-61.516c6.512-2.686 14.382 1.416 17.574 9.158 3.194 7.744 0.498 16.194-6.014 18.876l-149.194 61.516c-6.514 2.686-14.38-1.41-17.574-9.154-3.196-7.74-0.502-16.194 6.012-18.88zM518.254 471.208l222.71 185.922c9.722 8.116 13.254 19.91 7.886 26.338-5.368 6.43-17.598 5.058-27.32-3.058l-222.71-185.922c-9.726-8.118-13.26-19.906-7.892-26.338 5.366-6.428 17.604-5.060 27.326 3.058zM733.072 689.698l18.536-82.672c0.808-3.608 8.092-5.050 16.264-3.216s14.138 6.244 13.328 9.852l-18.536 82.672c-0.81 3.61-8.088 5.052-16.262 3.218-8.172-1.832-14.14-6.244-13.33-9.854zM668.080 682.224l83.842-12.196c3.66-0.534 7.608 5.754 8.812 14.042 1.204 8.29-0.788 15.436-4.446 15.966l-83.844 12.196c-3.66 0.532-7.606-5.75-8.812-14.042-1.204-8.284 0.788-15.434 4.448-15.966z" />
<glyph unicode="&#xe904;" glyph-name="timesheet" d="M585.934 339.034l40.066 1.046v47.722c0 0 12 22.91 28 0v-64.178c0 0 1.624-13.626-12.232-13.626h-54.728c0 0.002-22.582 13.044-1.106 29.036zM564 604.532c0-6.454-6.892-12.532-15.694-12.532h-153.374c-8.8 0-16.934 6.078-16.934 12.532v1.062c0 6.454 8.134 12.406 16.934 12.406h153.374c8.8 0 15.694-5.954 15.694-12.406v-1.062zM564 544.33c0-6.57-6.892-12.33-15.694-12.33h-153.374c-8.8 0-16.934 5.76-16.934 12.33v1.080c0 6.57 8.134 10.59 16.934 10.59h153.374c8.8 0 15.694-4.020 15.694-10.59v-1.080zM562 479.956c-2-7.44-4.892-9.956-13.694-9.956h-153.374c-8.8 0-10.934 0.684-14.934 9.956v1.448c0 8.8 6.134 12.596 14.934 12.596h153.374c8.8 0 13.694-3.796 13.694-12.596v-1.448zM344.696 354.106c0-7.725-6.263-13.988-13.988-13.988s-13.988 6.263-13.988 13.988c0 7.725 6.263 13.988 13.988 13.988s13.988-6.263 13.988-13.988zM344.696 415.406c0-7.725-6.263-13.988-13.988-13.988s-13.988 6.263-13.988 13.988c0 7.725 6.263 13.988 13.988 13.988s13.988-6.263 13.988-13.988zM344.696 482.042c0-7.725-6.263-13.988-13.988-13.988s-13.988 6.263-13.988 13.988c0 7.725 6.263 13.988 13.988 13.988s13.988-6.263 13.988-13.988zM344.696 544.678c0-7.725-6.263-13.988-13.988-13.988s-13.988 6.263-13.988 13.988c0 7.725 6.263 13.988 13.988 13.988s13.988-6.263 13.988-13.988zM344.696 604.648c0-7.725-6.263-13.988-13.988-13.988s-13.988 6.263-13.988 13.988c0 7.725 6.263 13.988 13.988 13.988s13.988-6.263 13.988-13.988zM777.574 327.502c-13.856 142.71-152.322 136.728-152.322 136.728v211.048c0 33.254-38.212 34.614-38.212 34.614h-300.252c-39.072-5.458-38.846-37.36-38.846-37.36l0.242-376.894c-4.156-47.106 38.432-49.882 38.432-49.882l235.656 1.386c47.112-74.824 134.056-59.584 134.056-59.584 130.246 13.856 121.246 139.944 121.246 139.944zM525.278 403.884c-1.020-0.414-4.206-5.408-4.206-5.408s-2.676-3.748-3.538-5.252c-4.732-8.276-6.264-9.020-7.27-16.028-0.214-1.502-1.066-2.294-2.106-2.636-0.288-1.914-0.342-7.132-0.342-7.132h-118.22c-20.784-19.816 0.914-26.092 0.914-26.092h108.542c-2.772-27.294 6.098-63.922 6.098-63.922h-227.692v402.258h320.372v-219.57c-34.918-8.52-50.208-31.164-50.208-31.164h-159.41c-19.872-15.558 2.3-26.22 2.3-26.22h121.36c0.468 0.478 1.402 1.434 1.402 1.434l-0.224 0.198c-0.004 0-10.010-1.632 12.228-0.466zM637.908 212.562c-58.96 0-113.424 53.132-113.424 112.098 0 58.958 54.462 113.42 113.424 113.42 58.958 0 113.426-54.462 113.426-113.42 0-58.964-54.468-112.098-113.426-112.098z" />
<glyph unicode="&#xe905;" glyph-name="times-off" d="M739.008 713.584l-439.312 0.432c0 0-33.050-2.060-39.666-41.108v-421.952c0 0 10.376-36.11 44.542-36.11h162.41c0 0 16.674-0.33 16.378 13.232 0 0-0.586 14.552-16.378 11.908h-147.44c0 0-41.428 0.882-35.012 49.44 0.122 0.932 0.238 1.808 0.352 2.664v3.754c-0.212-1.448-0.352-2.4-0.352-2.4l0.598 289.26h480.376v-100.97c0 0 9.704-22.288 26.462-0.816v199.538c0.002 0.002-10.654 38.008-52.958 33.128zM768.15 610.494h-484.302v50.732c0 0 1.324 31.308 30.49 29.984h421.886c0 0 29.284-3.088 31.928-25.418v-55.298zM598 662h30v-32h-30v32zM646 662h32v-32h-32v32zM698 662h32v-32h-32v32zM777.888 440.066c0 0-26.634 34.186-72.576 11.75l-193.312-188.038v-83.778h76.782l194.136 196.572c0 0 21.844 33.672-5.030 63.494zM755.362 379.032l-172.022-171.032h-47.34v43.898l173.196 173.342c0 0 27.492 24.092 48.664 0.276 0 0 22.2-25.312-2.498-46.484z" />
<glyph unicode="&#xe906;" glyph-name="repairs" d="M599.696 513.228c-2.31-1.362-4.614-2.738-6.918-4.11-2.082-3.142-4.922-5.756-8.246-7.556 11.806-15.082 18.918-33.938 18.918-54.22 0-48.376-40.368-88.746-88.744-88.746s-88.744 40.37-88.744 88.746c0 47.486 38.898 87.226 86.082 88.676-0.096 6.382 0.14 12.778 0.676 19.144-59.592-0.664-107.706-49.116-107.706-108.866 0-60.156 48.766-108.928 108.928-108.928 60.154 0 108.924 48.772 108.924 108.928 0.002 25.296-8.694 48.486-23.17 66.932zM579.068 194.038c0.010 0.8-0.010 1.626-0.054 2.476l0.054-2.476zM771.206 509.102l-63.862 1.964-13.286 23.552 42.422 51.028c0 0 18.76 15.7 1.094 33.364l-52.934 53.972c0 0-16.658 15.702-33.338 2.944l-50.51-50.776 14.508-13.12 50.286 47.25 58.554-57.646-50.75-61.366 23.894-48.044 74.516-2.614 1.306-82.358-79.742-6.538-19.22-50.216 50.594-56.272-56.21-58.744-58.734 50.344-53.294-22.792 4.832-74.096-88.894 1.308-7.842 0.314 2.614-1.28c-0.224 0.176-1.702 8.216-1.744 8.464-0.422 2.542-1.868 67.308-1.952 71.004-1.14 0.516-2.28 1.036-3.4 1.598-3.204 1.606-6.35 3.38-9.542 5.040-4.134 1.54-8.128 3.456-12.222 5.076-1.086 0.292-2.19 0.542-3.316 0.736-1.066 0.182-1.848 0.63-2.396 1.228-1.356 0.382-2.732 0.712-4.14 0.95-0.876 0.146-1.544 0.484-2.066 0.922-1.992 0.572-3.994 1.12-6.008 1.628l-1.030-1.024c-4.104-5.634-9.296-10.122-14.62-14.528l-40.514-40.26-3.268 3.268-63.728 64.71 3.268 3.268 54.39 64.068 0.418-0.804c0.004 0.070 0.014 0.136 0.020 0.208l-21.808 29.78 0.774 0.022c-6.678-0.072-13.368 0.034-20.082 0.056-14.808 0.054-29.616-0.58-44.432-0.582-0.752 0-1.408 0.146-1.972 0.404-0.27 0.010-0.54 0.026-0.802 0.074-0.926-0.074-1.852-0.132-2.782-0.15-0.49-0.010-0.924 0.062-1.334 0.168-1.506-0.148-3.022-0.224-4.55-0.168-0.132 0.004-0.244 0.040-0.37 0.054-0.75-0.018-1.496-0.048-2.246-0.054-0.256-0.004-0.488 0.034-0.722 0.064-0.194-0.024-0.376-0.064-0.584-0.064-0.458 0-0.868 0.068-1.256 0.17l-4.3-0.43 1.308 3.346c-0.312 1.004-0.312 2.112 0 3.116l-2.614 93.874 11.764 1.634 78.584 7.772 16.926 33.448c-0.012 0.188-0.012 0.376-0.018 0.566l-56.708 64.976 3.922 3.92 54.468 50.548 4.792 4.356 57.35-50.364 46.866 15.834 2.466 75.494v7.304h88.102l6.538-63.296-0.56-0.166c0.102-0.17 0.208-0.432 0.32-0.594l18.798-2.356-4.19 60.82c0 0 0.362 24.52-25.15 21.576l-77.442 0.24c0 0-26.416 2.69-26.416-22.822v-65.74l-22.472-8.84-49.018 44.16c0 0-19.11 15.702-34.812-1.962l-54.698-52.998c0 0-13.612-16.68 1.11-33.364l47.166-51.030-7.816-16.684-71.282-4.908c0 0-24.178 0.002-24.178-22.57v-81.444c0 0 2.26-30.024 23.852-30.024h69.676l10.796-14.926-46.124-50.148c0 0-15.704-11.336-1.964-31.946l58.88-60.62c0 0 19.628-11.666 31.404 0.112l45.14 46.176 23.552-8.804 3.928-72.592c0 0-0.002-18.644 25.512-16.68l77.524-0.136c0 0 24.478 0.992 24.884 25.42l-5.964 60.012 4.632 2.054 26.494 9.808 53.976-47.104c0 0 10.792-6.866 28.458 6.872l49.070 52.992c0 0 17.664 16.682 0 31.4l-43.182 48.088 8.83 25.512 68.356 3.93c0 0 20.268-2.94 20.268 12.758v90.282c0.002 0 0.832 16.68-18.792 18.644z" />
<glyph unicode="&#xe907;" glyph-name="recruitment" d="M775.978 231.618l-146.516 141.15c0 0 80.396 111.236 3.458 233.442 0 0-78.63 138.206-254.164 76.99 0 0-129.814-51.146-123.98-206.060 0 0 3.602-117.836 114.926-169.908 0 0 97.844-47.214 209.482 14.642l140.302-148.028c0 0 28.644-15.674 51.52 7.768 0.004 0 23.070 28.88 4.972 50.004zM460.96 306.662c-103.174 0-186.816 83.642-186.816 186.818 0 103.174 83.642 186.816 186.816 186.816 103.17 0 186.816-83.642 186.816-186.816 0-103.176-83.646-186.818-186.816-186.818zM756.616 192.248c0 0-23.92-16.494-32.876 0l-132.052 140.888 25.408 25.954 144.668-136.062c-0.002 0 10.384-18.112-5.148-30.78zM499.296 497.17c33.436 23.034 25.608 66.452 25.608 66.452-4.458 48.296-63.012 56.658-63.012 56.658-51.696-4.58-68.598-46.898-68.598-46.898-10.544-54.574 28.42-78.166 28.42-78.166-57.212-34.18-59.386-95.216-59.386-95.216h199.872c-1.488 76-62.904 97.17-62.904 97.17zM411.222 550.698c0 24.62 22.534 48.44 47.154 48.44 24.622 0 49.728-18.246 49.728-49.728 0-24.624-23.82-47.154-48.44-47.154-24.622 0-48.442 23.818-48.442 48.442zM387.3 418c11.060 60 74.392 61.216 74.392 61.216 67.984-1.816 78.252-61.216 78.252-61.216h-152.644z" />
<glyph unicode="&#xe908;" glyph-name="project" d="M714 681.798v-65.798h-426.578c-47.112-6-40.904-39.81-40.904-39.81l0.112-309.386c-2.696-43.124 40.792-50.894 40.792-50.894l432.746 1.19c61.616 2.488 61.832 66.48 61.832 66.48v337.16c-12 72.406-68 61.058-68 61.058zM710.52 237.45l-412.588-0.264c0 0-25.93 1.19-31.93 24.104v293.080c0 0-1.93 45.632 32.042 41.632h415.956v-265.3c0 0 48.71-2.942 45.832-50.438 0-0.002-2.144-46.854-49.312-42.814zM762 335.41c-16 17.522-30 15.95-30 15.95v303.89c24-2.812 30-47.786 30-47.786v-272.054zM404 454v-76h176v76h-176zM560 396h-136v40h136v-40zM404 556v-76h176v76h-176zM560 498h-136v40h136v-40zM404 344v-74h176v74h-176zM560 286h-136v40h136v-40zM588 524v-18h69.516c0 0 20.484-5.482 20.484-20.656v-37.166c0 0 4.736-20.176-13.848-26.176h-49.112l21.238 21.050-10.62 10.528-37.168-37.214 35.176-37.188 10.136 9.098-18.1 17.726h47.122c0 0 31.176 0.364 31.176 33.548v45.794c0 0 4 28.656-28.52 38.656h-77.48zM394 416v-16h-67.74c0 0-20.26-5.676-20.26-20.848v-37.166c0 0-4.96-21.986 13.624-25.986h49.114l-21.238 20.958 10.618 10.478 37.166-37.236-35.176-37.204-10.136 9.186 18.102 17.818h-47.124c0 0-32.95 0.172-32.95 33.358v45.794c0 0-2.226 28.848 30.296 36.848h75.704z" />
<glyph unicode="&#xe909;" glyph-name="purchase" d="M290 430h56v-36h-56v36zM370 430h60v-36h-60v36zM450 430h56v-36h-56v36zM532 430h56v-36h-56v36zM812 618.556c0 24.976-20.36 45.444-45.764 45.444h-494.892c-25.404 0-45.344-20.468-45.344-45.444v-327.112c0-24.974 19.94-45.444 45.344-45.444h494.892c25.404 0 45.764 20.468 45.764 45.444v327.112zM793.604 311.788c0.91-51.92-37.804-51.788-37.804-51.788h-471.408c-43.724 2-40.392 37.182-40.392 37.182v230.818h549.618l-0.014-216.212zM796 568h-2v-14h-548v54.72c0 0-2.598 35.282 37.482 37.282h479.148c0 0 29.37-4.944 33.37-38.648v-39.354z" />
<glyph unicode="&#xe90a;" glyph-name="point-of-sale" d="M781.174 521.124c-16.134 28.964-43.502 48.612-58.652 77.318-1.33 2.522-1.030 4.986-1.084 7.342l-1.438 2.964v83.258c0 32-35.496 33.706-35.496 33.706l-339.836-0.184c-41.144 3.046-40.668-32.73-40.668-32.73v-84.050l-0.426-0.522c-0.020-1.394-0.286-2.84-0.836-4.308 0.014-2.694-0.826-5.568-2.942-8.476-11.55-15.868-24.402-30.724-36.020-46.526-9.894-13.456-23.014-26.322-25.404-43.468-0.332-2.372-1.072-4.312-2.068-5.922-0.436-10.184 0.568-20.276 4.298-29.624 6.362-15.952 20.756-21.432 36.158-25.874 13.77 1.124 10.034-21.026 10.034-21.026s0.468-12.518-0.656-15.86c-1.126-3.344-0.138-2.304-2.138-3.344v-197.87c0-33.522 32.044-35.928 32.044-35.928h389.318c28.95 0 31.624 31.68 31.624 31.68l1.12 222.532c0 0-4.814 20.878 10.458 19.004 34.778 5.308 48.598 49.212 32.61 77.908zM328 704h366v-88h-366v88zM578.008 584h0.584c0.014 0 0.040 0.412 0.068 0.544l-0.856 0.224-3.492 7.232h41.68l4.042-7.766 62.226-114.234h-66.8l-37.452 114zM598.21 470h-72.21v122h33.042l2.4-8h0.748l36.020-114zM344.234 470l2.038 3.458 64.624 120.542h40.442l-38.536-125.786-68.568 1.492 0.216 0.294h-0.216zM437.218 473.208l30.628 118.792h41.678l-1.238-122h-72.168l1.1 3.208zM261.51 509.588l56.124 77.58 0.466-0.014c0 0.002 0 0.004 0.002 0.006l-0.262 0.296 5.57 8.542h69.74l-5.062-10.978-66.71-114.21c-0.002 0-78.45-21.624-59.868 38.778zM580 196h-126v178h126v-178zM712 196h-108v10.51l-0.834 157.408c0 0 4.674 36.082-37.99 36.082h-105.046c0 0-30.568-4.442-27.52-30.344l1.526-162.054 0.104-11.602h-124.24v244h402v-244zM740.354 469.202c-14.62-2.658-31.922 1.236-31.922 1.236l-66.708 113.99-6.51 7.572h59.598l2.346-2.64-1.934 2.64h9.902l53.236-74.84c0.002 0 28.358-47.078-18.008-47.958zM740.356 469.202c0.002 0 0.212 0.032 0.582 0.112-0.194-0.038-0.388-0.076-0.582-0.112z" />
<glyph unicode="&#xe90b;" glyph-name="notes" d="M695.068 711h-366.136c-14.242 0-25.784-11.544-25.784-25.784v-474.43c0-14.242 11.542-25.786 25.784-25.786h366.136c14.24 0 25.786 11.542 25.786 25.786v474.43c0 14.24-11.544 25.784-25.786 25.784zM702.16 225.336c0-9.816-7.91-17.776-17.668-17.776h-346.272c-9.756 0-17.666 7.958-17.666 17.776v447.908c0 9.816 7.91 17.774 17.666 17.774h346.274c9.758 0 17.668-7.958 17.668-17.774v-447.908zM354.072 510.528h319.726v-20.628h-319.726v20.628zM354.072 458.314h319.726v-20.628h-319.726v20.628zM354.072 405.456h319.726v-20.626h-319.726v20.626zM354.072 351.308h319.726v-20.626h-319.726v20.626zM354.072 298.452h319.726v-20.626h-319.726v20.626zM395.326 635.582c0-8.544-6.926-15.47-15.47-15.47s-15.47 6.926-15.47 15.47c0 8.544 6.926 15.47 15.47 15.47s15.47-6.926 15.47-15.47zM448.184 635.582c0-8.544-6.926-15.47-15.47-15.47s-15.47 6.926-15.47 15.47c0 8.544 6.926 15.47 15.47 15.47s15.47-6.926 15.47-15.47zM622.528 635.582c0-8.544-6.926-15.47-15.47-15.47s-15.47 6.926-15.47 15.47c0 8.544 6.926 15.47 15.47 15.47s15.47-6.926 15.47-15.47zM675.75 635.582c0-8.544-6.926-15.47-15.47-15.47s-15.47 6.926-15.47 15.47c0 8.544 6.926 15.47 15.47 15.47s15.47-6.926 15.47-15.47z" />
<glyph unicode="&#xe90c;" glyph-name="live-chat" d="M685.252 696h-332.2c-82.67-6-93.052-87.822-93.052-87.822v-225.494c12-81.746 91.826-83.17 91.826-83.17l2.986-79.098c0-38.152 42.84-20.096 42.84-20.096l124.744 81.68h159.742c84.434 20 83.862 100.684 83.862 100.684v223.236c-6 81.080-80.748 90.080-80.748 90.080zM737.934 583.122l1.194-185.464c-1.194-67.52-66.702-84.224-66.702-84.224l-158.232 1.194-131.094-86.34-0.252 80.26c-3.38 19.382-15.894 19.112-15.894 19.112l-19.856 1.612c-49.284 6.358-61.098 59.676-61.098 59.676v209.022c-2 65.094 78.174 73.446 78.174 73.446l303.838-1.194c70.896-3.578 70.672-80.816 69.922-87.1zM680 538.892c0-9.722-12.452-16.892-26.556-16.892h-273.526c-14.108 0-25.918 7.17-25.918 16.892v0.59c0 9.722 11.81 16.518 25.918 16.518h273.526c14.106 0 26.556-6.796 26.556-16.518v-0.59zM628 445.882c0-10.542-11.066-19.882-24.904-19.882h-181.384c-13.838 0-25.71 9.342-25.71 19.882v0.008c0 10.542 11.874 18.11 25.71 18.11h181.384c13.838 0 24.904-7.566 24.904-18.11v-0.008z" />
<glyph unicode="&#xe90d;" glyph-name="manufacturing" d="M669.634 332.834c-26.52 0-48.018-21.502-48.018-48.026 0-26.522 21.498-48.020 48.018-48.020 26.526 0 48.026 21.498 48.026 48.020 0 26.524-21.5 48.026-48.026 48.026zM669.634 263.646c-11.692 0-21.158 9.468-21.158 21.162 0 11.698 9.466 21.164 21.158 21.164 11.7 0 21.164-9.466 21.164-21.164 0-11.692-9.464-21.162-21.164-21.162zM762.386 313.074c-28.944 84.198-119.716 67.076-119.716 67.076l-180.246 182.83c0.208 0.244 0.402 0.49 0.602 0.734-0.666 0.692-0.992 1.696-0.606 2.918 0.35 1.108 0.748 2.208 1.178 3.298-0.046 0.218-0.074 0.448-0.080 0.696-0.148 7.066 2.742 13.196 4.882 19.67 0.516 3.108 0.892 6.238 1.18 9.382v18.998c-3.078 11.65-7.156 19.926-7.156 19.926-0.77 0.992-1.54 1.802-2.304 2.764-74.162 92.804-145.044 43.376-145.044 43.376l56.572-61.198-10.578-34.124h-38.1l-49.024 52.662v0.372c-0.858 0.456-1.68 0.984-2.466 1.578-44.93-72.992 20.086-125.698 20.086-125.698 9.864-10.664 19.78-17.76 29.318-22.3 21.014-5.686 43.318-8.13 63.596 1.592 0.78 0.374 1.536 0.414 2.214 0.246 2.24 1.208 3.456 2.040 3.456 2.040l18.376-13.154 14.454 19.734-30.27 18.42c-107.882-31.574-110.518 73.674-110.518 73.674l25.754-29.436 67.458 0.434 21.242 63.208-40.782 43.416c20 6.666 39.998-5.85 53.658-18.062 0.738 0.244 1.594 0.156 2.464-0.466 9.936-7.11 19.228-15.798 24.422-27.074 5.204-11.304 6.802-23.374 6.88-35.73 0.010-1.614-0.958-2.592-2.144-2.952-2.652-18.474-10.292-34.126-10.292-34.126l207.868-206.55c53.942 23.682 88.148-27.628 88.148-27.628 9.292-16.184 12.1-30.158 11.512-41.788 0.094-0.304 0.158-0.628 0.158-1-0.006-5.722-0.206-11.472-2.47-16.578-0.726-3.050-1.968-5.978-3.394-8.824 0.418-0.832 0.502-1.844-0.032-2.898-3.416-6.758-7.334-13.374-12.628-18.84-0.768-0.794-1.644-1.040-2.474-0.936-3.038-2.156-5.88-4.362-9.18-5.938-7.238-5.948-18.312-7.194-27.368-7.902-0.506-0.446-1.186-0.73-2.058-0.72-3.55 0.046-7.082 0.642-10.556 1.328-0.428 0.084-0.776 0.24-1.080 0.428-22.956 1.334-41.732 12.888-41.732 12.888-45.908 36.908-17.106 86.836-17.106 86.836l-165.768 167.082-15.784-19.736 151.296-156.56c-5.262-26.312 0-47.366 0-47.366 28.944-82.886 115.772-65.792 115.772-65.792 90.78 13.162 68.41 115.77 68.41 115.77z" />
<glyph unicode="&#xe90e;" glyph-name="lunch" d="M513.384 720.278c-152.93 0-276.906-123.976-276.906-276.906 0-152.936 123.976-276.91 276.906-276.91 152.932 0 276.91 123.974 276.91 276.91-0.002 152.93-123.978 276.906-276.91 276.906zM512.916 190.854c-136.67 0-252.518 115.844-252.518 252.52 0 136.668 113.32 256.306 249.99 256.306 140.046 0 260.1-119.638 260.1-256.306 0-136.676-120.9-252.52-257.572-252.52zM504 638.454v16.574c0 0 150.212 16.204 212.318-157.676l-15.708-8.83c0 0-44.61 149.982-196.61 149.932zM350.396 301.060l18.226 16.826c0 0 22.708-56.794 106.834-69.414l-5.886-20.322c0.002 0-85.524 11.218-119.174 72.91zM637.996 291.812l-67.672 64.91c0 0-18.642 22.096-34.524 6.904l-15.882-16.91-23.478 25.198 20.024 23.478-130.506 131.198c0 0-22.788 24.168-51.79 0 0 0-36.744-29.546-11.812-54.478l133.472-133.476 22.156 19.908 26.086-26.226-17.812-16.96c0 0-11.224-9.042 3.276-26.996l71.816-72.506c0 0 2.068-8.286 17.26 0 0 0 0.014 8.978-4.126 15.192l-63.074 65.144c0 0-1.16 9.434 5.054 12.886 0 0 7.936 10.124 17.604 0.456l58.928-63.984c0 0 5.264-5.758 17.194 1.838 0 0-0.412 5.068-5.056 14.734l-61.502 66.29c0 0-5.758 7.596-0.234 10.358 0 0 3.908 10.814 13.576 1.838l68.242-66.322c0 0 8.406-7.174 15.308 1.264-0.002-0.004 5.068 7.978-2.528 16.262zM456.624 367.432l-120.034 122.444 28.872 29.106 121.532-120.946-30.37-30.604zM716.338 410.696l-264.782 261.304h-4.144c0 0-69.378-47.832-14.398-144.062 0 0 32-50.054 98.29-50.054l123.954-132.504c0 0 30.382-25.992 64.91 9.916 0-0.002 20.65 33.304-3.83 55.4zM696.338 359.264c0 0-18.63-9.786-34.514 4.716l-108.41 115.992 10.918 11.402-13.564 12.52c0 0-66.862-16.78-104.84 39.15 0 0-32.35 60.752 2.866 104.946l259.386-257.432c0 0 6.112-18.864-11.842-31.294z" />
<glyph unicode="&#xe90f;" glyph-name="link-tracker" d="M469.666 555.826l24.358-24.358 139.386 138.032c0 0 55.482 35.184 98.788-12.178 0 0 39.244-47.364 0-87.962l-140.738-139.386c0 0-58.19-36.538-96.082 12.18l-25.712-25.332c0 0 54.882-68.494 139.986-19.778l150.962 151.566c0 0 48.716 57.738 0 129.008 0 0-59.542 73.978-145.248 22.554l-145.7-144.346zM560.334 345.858l-24.36 24.36-139.384-138.034c0 0-55.484-35.184-98.788 12.18 0 0-39.244 47.364 0 87.962l140.738 139.384c0 0 58.19 36.538 96.082-12.18l25.71 25.332c0 0-54.882 68.494-139.986 19.778l-150.964-151.564c0 0-48.716-57.738 0-129.010 0 0 59.542-73.978 145.25-22.554l145.702 144.346z" />
<glyph unicode="&#xe910;" glyph-name="maintenence" d="M655.792 336.768l-76.704 67.298 18.306 21.736-18.306 14.604 48.454 53.838c0 0 130.562-83.45 126.524 115.754 0 0-34.998-59.222-86.144-57.876 0 0-37.686 17.498-48.454 44.416 0 0-9.42 29.61 65.952 79.412 0 0-152.94 39.792-123.83-121.138l-37.686-40.378-158.822 153.44c0 0-34.968 33.65-71.324 0 0 0-47.122-36.342-1.36-74.030 20.872-17.188 18.134-17.25 13.958-14.726 1.038-1.274 6.544-4.958 7.474-6.354 5.654-4.324 9.954-9.96 13.77-16.010l123.62-116.074-49.798-48.728c0 0-121.792 44.314-132.954-107.268 1.926 1.124 3.866 2.242 5.802 3.392 1.106 0.652-0.098 0.88 0.91 0.818 2.58 2.002 5.356 3.754 8.334 5.24l2.286 1.552 52.418 34.352c0 0 31.604 12.114 54.484-17.5 0 0 32.98-37.412-2.936-67.296l-45.63-32.306v-7.4c0 0 10.236-15.478 77.536 0 0 0 82.746 47.314 42.368 126.958l50.796 48.692 18.932-22.348 19.906 18.104 69.71-69.788c0 0 12.186-75.678 115.818-108.502 0 0 26.946-3.21 26.946 23.708 0 0.004-26.758 91.698-110.356 114.408zM297.784 611.346c-25.574 30.958 10.97 49.798 10.97 49.798 28.854 20.754 49.064-8.076 49.064-8.076l154.148-148.054-52.26-52.106-1.75 1.144-160.172 157.294zM448.53 334.076c0 0 49.17-117.836-84.242-121.138 0 0 79.684 37.026 49.25 96.912 0 0-47.868 79.574-130.282-1.88 0 0 17.828 110.034 119.512 65.138l176.322 173.632c0 0-40.378 113.058 67.298 121.134l-37.688-44.416c0 0-14.978-28.274 10.97-52.29l34.258-29.816c0 0 13.992-8.076 40.912 1.346 0 0 37.69 17.5 44.418 28.266 0 0 2.688-122.482-111.716-60.57l-179.012-176.318zM534.164 375.236l-9.282 11.046 45.522 46.402 11.488-8.842-47.728-48.606zM733.562 211.624c0 0-89.436 35.676-100.042 100.636l-1.142 4.64-69.696 68.292 0.754 1.018 3.43 2.284 0.388-1.016 4.616 7.442 72.846-66.772c0 0 62.172-0.102 107.248-99.534 0 0.002 2.366-22.66-18.402-16.99z" />
<glyph unicode="&#xe911;" glyph-name="event" d="M754.578 524.044c-47.264-49.828-87.464-5.754-87.464-5.754-27.6 43.542 13.588 74.782 13.588 74.782l-54.394 66.982-44.478-41.55 22.382 53.45-86.866 38.64c-13.86-65.84-70.286-47.074-70.286-47.074-51.982 15.592-32.886 71.038-32.886 71.038l-82.332 19.35-123.842-462.606v-0.912l136.558-33.768 121.248-119.588 350.73 325.766-61.958 61.244zM246.42 311.234l76.796 285.004 11.946 5.974-7.68 11.946 25.126 103.074 33.752-6.65c-13.704-52.334 56.050-75.042 56.050-75.042 82.204-8.458 91.57 37.766 91.57 37.766l34.132-13.068-22.186-69.118-29.014-25.598-23.038 14.506-10.778-22.138 16.75-12.848-60.584-57.172 11.946 39.252-18.724 3.682-22.234-72.8-28.476-24.034 28.476 101.686-24.478 5.656-31.572-111.786 20.21-5.656-15.36-11.946-38.398-36.692 23.040 85.33-20.698 5.12-27.624-109.54-21.918-20.38 37.862-42.446-64.894 17.918zM683.534 391.498l-3.46-22.52-214.846-194.908-152.39 160.876 213.916 197.054h17.246v17.306l80.968 73.774 23.22-25.4-9.194-17.326c0 0-24.936-48.804 9.714-81.726 0 0 32.718-36.956 87.274-20.098l17.372 7.122 23.718-23.116-71.026-69.304-22.512-1.734zM323.534 480.188l22.722-5.972 19.626 72.53-22.136 5.12zM542.802 518.028l17.636 15.93 26.738-27.306-17.634-15.36zM576.936 483.894l17.632 15.93 26.74-27.306-17.634-15.354zM611.068 449.762l17.634 15.934 26.738-27.306-17.634-15.358zM645.202 415.63l17.632 15.934 26.738-27.306-17.63-15.362zM365.882 339.212l89.102 80.972 20.692-20.214-89.674-81.004zM468.28 373.346l89.102 80.97 20.694-20.212-89.678-81.004zM529.718 305.080l89.102 80.972 20.694-20.212-89.678-81.004zM468.28 431.564l20.478-17.552 60.306 56.32-22.188 18.202zM529.718 370.124l20.48-17.552 60.304 56.324-22.186 18.2zM454.626 233.598l20.478-17.556 60.306 56.328-22.186 18.198zM393.188 301.86l20.48-17.552 60.304 56.326-22.186 18.2zM423.908 273.502l92.728 88.178 21.616-21.62-94.432-86.758zM342.271 613.385l40.079-8.446-5.374-25.502-40.079 8.446 5.374 25.502zM393.145 603.782l41.186-8.162-5.28-26.641-41.186 8.162 5.28 26.641zM444.691 592.976l40.079-8.446-5.388-25.566-40.079 8.446 5.388 25.566z" />
<glyph unicode="&#xe912;" glyph-name="invoicing" d="M604.33 705.55l-307.036-0.89c0 0-33.294 1.312-37.294-26.036v-113.506l1.316-7.12h58.684v-345.844c0 0-1.486-18.156 21.69-18.156h297.36c0 0 12.876-0.82 12.876 25.898l-2.4 450.694c0 0.002 2.4 39.902-45.196 34.96zM324 664.196v-88.196h-44v92.066c6 14.708 16.604 17.106 16.604 17.106 25.186 4.532 27.396-20.976 27.396-20.976zM632 214h-293.096l1.2 469.92 267.616 1.092c0 0 24.282-2.506 24.282-27.784v-443.228zM378 404h218v-24h-218v24zM378 342h218v-24h-218v24zM378 282h218v-26h-218v26zM527.282 527.19c-5.682 28.188-39.944 30.46-39.944 30.46-0.048 0.028 1.114 0.056 1.072 0.082-1.692-0.8-9.74 0.374-11.85 1.738-4.336 2.806-9.842 11.812-9.34 17.198 3.21 21.882 22.518 23.588 22.518 23.588 24.268 5.49 31.386-20.55 31.386-20.55l12.154 6.506c-2.082 27.926-31.462 29.838-31.462 29.838v16.57h-20.364l-0.914-16.696c-32.21-9.906-32.418-44.196-32.418-44.196-0.036-0.91 1.668-5.98 1.68-6.848 0.148-0.372 0.284-0.674 0.474-1.076 8.162-17.264 14.31-19.352 24.134-22.254 5.122-1.514 11.458-2.018 11.458-2.018 28.138 1.452 22.524-25.656 22.524-25.656-3.098-22.446-26.046-20.548-26.046-20.548-17.030 0-24.42 13.006-24.42 13.006l-11.806-12.428c12.718-17.688 30.538-18.076 30.538-18.076v-17.77h22.992l-0.076 19.432c36.42 13.924 27.71 49.698 27.71 49.698zM692 652v-309.194l29.090-79.246c17.542-23.734 32.008-1.202 32.008-1.202l28.902 79.25v310.392h-90zM738.126 271.402l-28.168 76.598h55.142l-26.974-76.598zM766 366h-58v268h58v-268z" />
<glyph unicode="&#xe913;" glyph-name="fleet" d="M346 650v-79.322c-192 8.786-165.008-155.346-165.008-155.346-8.788-1.758-20.752-14.742-20.752-14.742-11.38-9.688 5.992-18.404 5.992-18.404l52.688-0.4c7.028-38.656 54.458-38.086 54.458-38.086 43.928 1.762 49.674 34.3 49.674 34.3h36.412c10.544 20 29.44 20.558 29.44 20.558l-14.492 20.858-3.402 209.168 268.99-0.748v-98.57l26-0.094v120.828h-320zM275.646 543.458l72.354 3.484v-43.718l-126.224-0.244c0-0.002 20.702 36.996 53.87 40.478zM270.734 373.912c-12.132 0-25.448 13.312-25.448 25.442 0 12.126 9.206 24.828 25.448 25.448 17.81 0.68 27.186-13.32 27.186-25.448 0-12.13-15.056-25.442-27.186-25.442zM348 412h-21.464c0 0-3.46 43.27-53.218 44.136 0 0-47.164 3.864-55.818-44.136h-18.172l9.5 66h139.172v-66zM663.19 512c-122.884-8-194.71-102.176-194.71-102.176l-60.356-15.174c-36.346-3.462-36.124-29.886-36.124-29.886v-46.732c-10 0-22.288-18.172-22.288-18.172-5.626-20.77 17.63-18.174 17.63-18.174l69.186 2.62c11.25-42.406 57.076-42.746 57.076-42.746 44.71 3.274 52.752 45.34 52.752 45.34l173.956-0.866c12.156-44.474 58.842-40.504 58.842-40.504 46.728 0.862 51.022 36.47 51.022 36.47h53.824v230h-220.81zM491.844 273.034c-15.772 0-28.558 12.792-28.558 28.556 0 15.768 12.786 28.556 28.558 28.556 15.776 0 28.558-12.79 28.558-28.556s-12.782-28.556-28.558-28.556zM626 322h-81.41c0 0-5.4 41.078-55.384 39.954 0 0-37.952 2.51-50.108-41.022l-40.954-1.92 1.742 38.916c0 0 3.142 10.96 20.45 15.49 0 0 48.142 8.582 68.046 24.582h137.618v-76zM622 423.502l-99.294-0.462c0 0 45.294 43.256 99.294 51.626v-51.164zM775.688 273.034c-15.772 0-28.556 12.792-28.556 28.556 0 15.768 12.786 28.556 28.556 28.556 15.78 0 28.558-12.79 28.558-28.556s-12.78-28.556-28.558-28.556zM864 326h-35.566c0 0-2.554 37.906-45.82 38.77 0 0-48.404 5.23-58.816-40.77h-75.798v161.998l216 1.742v-161.74z" />
<glyph unicode="&#xe914;" glyph-name="inventory" d="M790.334 594.062c28.048 33.958-7.734 50.198-7.734 50.198l-138.484 62.004c-33.95 19.192-45.642-12.92-45.642-12.92l-56.090-84.528-130.010-14.77-13.514 30.986-139.276 67.876c-44.292 4.43-35.662-32.554-35.662-32.554l41.188-99.096v-243.28c0-31.008 19.52-36.914 19.52-36.914l150.562-97.442 268.394 32.482c28.050 7.386 20.040 31.038 20.040 31.038v255.382l66.708 91.538zM258.562 658.262l117.902-55.022 39.302-99.562-9.984 5.77 0.97-2.492-24.626 16.16-91.594 52.928-31.97 82.218zM423.626 232.498l-132.314 85.152v229.258l132.314-82.534v-231.876zM422.042 568.552l127.346 16.652v-87.934l-95.566-9.506-31.78 80.788zM689.562 252.954l-0.432-10.848-232.754-27.948v244.784l233.186 27.344v-233.332zM578.212 497.268v75.622l90.358-62.984-90.358-12.638zM699.082 526.148l-120.872 74.474-6.988 3.928 54.148 77.728 144.978-67.248-71.266-88.882z" />
<glyph unicode="&#xe915;" glyph-name="expences" d="M643.646 618.506l11.232 16.922c0 0 29.064-10.408 46.826-44.316l-14.198-13.488c0.002 0-27.976 30.092-43.86 40.882zM408.972 352h19.376c0 0 0-25.246 16.148-34.128 0 0 27.45-23.522 57.322 5.544 0 0 35.526 59.692-35.524 67.764 0 0-53.556 6.152-57.322 46.53 0 0-2.268 23.67 1.5 33.894 0 0 5.53 39.28 51.53 45.738v20.658h24v-18.506c0 0 55.672-12.38 53.524-62.972l-27.948 0.536c0 0 4.488 34.448-37.784 39.292 0 0-40.092-1.612-40.628-38.212 0 0-7.522-41.448 54.916-45.212 0 0 46.6-9.688 51.384-49.514 0 0 4.54-68.334-57.46-79.102v-18.31h-21.358l-0.536 17.202c-0.006 0-58.902 2.798-51.14 68.798zM784.166 564.962c-34.426 113.11-166.35 153.57-166.35 153.57-108.19 26.228-193.364-33.048-193.364-33.048l-147.276-135.464c-72.128-104.916-44.592-204.912-44.592-204.912 36.066-137.704 165.566-175.402 165.566-175.402 134.422-40.982 232.184 50.818 232.184 50.818l116.916 136.058c79.236 89.004 36.916 208.38 36.916 208.38zM470.33 178.362c-120.838 0-227.060 104.844-227.060 225.682s106.222 224.304 227.060 224.304c124.514 0 224.304-103.466 224.304-224.304s-103.466-225.682-224.304-225.682zM745.304 380.174c35.246 109.662-28.762 192.214-28.762 192.214l-15.846-12.010c73.196-129.176 2.15-222.814 2.15-222.814s-28.176-72.902 1.080 4.306c29.252 77.21-13.192 163.090-13.192 163.090-27.45 63.782-93.652 107.378-93.652 107.378-83.158 54.090-193.762 22.604-193.762 22.604 123.222 75.45 224.442-5.652 224.442-5.652l12.584 16.62c-93.15 66.252-195.38 29.3-195.38 29.3 78.34 50.014 167.456 27.856 167.456 27.856 64.59-17.222 114.108-73.372 114.108-73.372 104.55-110.92 18.774-249.52 18.774-249.52zM469.040 590.012c-104.158 0-188.594-84.438-188.594-188.6 0-21.808 3.748-42.736 10.558-62.216 0.252 0.202 0.474 0.436 0.738 0.63 7.094 5.268 9.966 8.22 18.202 11.288-5.3 16.176-10.762 33.448-10.964 51.398-0.946 84.176 71.088 169.070 173.2 169.070 91.098 0 169.074-77.978 169.074-169.070 0-91.1-77.976-170.454-169.074-170.454-14.316 0-28.208 1.828-41.458 5.262-0.048-0.992-0.152 3.526-0.356 2.53-0.916-4.472-2.454-8.71-3.936-13.020-0.752-2.182-1.534-4.376-2.082-6.622 0.012 0.050-0.162 0.462-0.34-0.458 14.434-3.562 29.49-6.928 45.034-6.928 104.158 0 188.594 84.438 188.594 188.59-0.002 104.162-84.438 188.6-188.596 188.6zM300.786 314.43l15.244 10.73c0 0 35.738-65.922 86.72-78.646l-10.732-16.858c0 0-58.936 22.606-91.232 84.774z" />
<glyph unicode="&#xe916;" glyph-name="global-search" d="M776.928 214.366l-149.166 149.164c0 0 60.332 46.24 63.726 153.64 0 0 0.416 105.906-92.066 173.030 0 0-125.298 77.566-241.648 0 0 0-137.23-89.5-77.566-259.546 0 0 96.958-214.796 319.212-93.974l150.656-149.164c0 0 8.95-13.426 26.85 0 0.002 0 14.92 5.966 0.002 26.85zM476.362 329.22c-101.742 0-184.218 82.48-184.218 184.22 0 101.742 82.476 184.218 184.218 184.218 101.738 0 184.218-82.478 184.218-184.218 0-101.738-82.48-184.22-184.218-184.22z" />
<glyph unicode="&#xe917;" glyph-name="CRM" d="M718.052 682l-0.722-12.554-84.474 35.602c0 0-32.49 15.634-56.32-7.468l-43.32-34.42-11.55-1.328-0.724 26.776-68.588-0.694-2.888-63.524-117.688-0.712-2.888-286.792-3.614-0.886h-81.276v-132.532c0 0 6.218-39.468 54.596-39.468h344.368c0 0 44.128 1.73 42.662 50.114l0.034 295.286c0 0 19.030 0.6 21.958 22.6h4.382v-16.622l70 0.722v165.9h-63.948zM332 209.244c0 0-2.634-22.574-30.074-23.054 0 0-29.926-3.368-33.926 25.994v107.816h64v-110.756zM468 670h36v-138h-36v138zM632.134 186h-297.112c0 0 12.978 3.748 12.978 22.52v393.48h104v-86h70v28.258l76.364-58.484c0 0 22.3-15.884 28.078 9.386 0 0 21.582-17.328 28.080 7.944 0 0 7.478-7.22 11.478-6.498v-287.362c0 0 2.232-23.244-33.866-23.244zM692.782 531.624c0 0-3.972-2.886-11.552 6.138l-15.522 20.578c0 0-6.138 3.972-10.47-0.72 0 0-7.58-2.528 0.364-14.44l13.716-16.248c0 0 3.612-6.858-2.886-10.108 0 0-4.696-2.888-11.912 5.778l-20.22 25.27c0 0-5.776 6.138-11.548 1.446 0 0-6.14-3.972 0-10.832l12.996-18.412c0 0 4.55-5.534-1.162-9.486-0.306-0.212-0.638-0.42-1.004-0.624 0 0-3.97-2.888-9.746 3.97l-19.136 25.27c0 0-3.248 4.332-10.468-0.36 0 0-5.776-3.97-0.722-9.748l15.164-19.738c0 0 2.628-5.534-2.478-6.618 0 0-2.938-5.414-13.768 5.776l-60.958 49.098c0 0-5.464 5.054-15.464 3.97v62.416h5.664c0 0 14.918-35.618 62.092-14.44 1.792 0.804 3.396 1.802 4.92 2.482l24.928 21.044 80.866-90.904c-0.008 0.002 5.528-6.586-1.694-10.558zM712 567.364l-15.742-2.004-64.426 80.382c0 0-15.376 21.66-35.592 0l-20.198-16.922c0 0-23.108-16.214-42.598 9.5l57.166 45.832c0 0 13.522 18.102 39.036 0.292 0 0 48.354-27.146 82.354-28.59v-88.49zM770 532h-40v138h40v-138zM452 446h198v-16h-198v16zM452 352h198v-16h-198v16zM452 262h198v-18h-198v18zM359.934 432.346l15.884 13.72 12.994-13.72 37.546 38.268 15.162-13.72-54.872-52.706zM359.934 334.152l15.884 13.72 12.994-13.72 37.546 38.268 15.162-13.718-54.872-52.708zM359.934 241.734l15.884 13.722 12.994-13.722 37.546 38.268 15.162-13.72-54.872-52.704z" />
<glyph unicode="&#xe918;" glyph-name="email-marketing" d="M256 468.642v5.99c0 0-5.614 41.922 27.324 63.632l201.938 144.482c0 0 26.484 24.706 53.436 0l101.952-73.364-11.162-14.222-101.028 71.118c0 0-16.452 17.216-35.916-2.246l-192.996-136.25c0 0-19.55-11.228-27.55-41.922v-256.776c0 0 4.212-25.086 40.894-25.086h409.494c0 0 26.952-3.18 25.456 32.004l0.058 236.844c0 0 5.93 22.228-12.788 42.442l-62.88 45.176 9.73 16.598 63.632-43.354c0 0 23.958-24.672 20.212-52.372l0.396-247.026c0 0 3.912-43.658-38.602-46.29-0.964-0.058-1.954-0.098-2.97-0.112-45.664-0.748-425.962 0-425.962 0s-43.432 0.75-42.116 43.422l-0.552 237.312zM288.19 251.544l7.682-7.878 129.512 100.432-9.18 7.762zM595.988 342.796l8.118 9.064 128.762-101.814-7.996-7.564zM294.1 483.734l8.314 12.608 185.616-148.108c0 0 27.92-14.756 49.806 1.814l181.556 146.294 8.692-12.488-181.054-144.494c0 0-35.94-27.952-73.682 2.626l-179.248 141.748zM394 438v30h70v-72h-12v60h-44v-18zM632 438v30h-72v-72h14v60h44v-18zM478 372h16v152h36v-152h18v168h-70zM743.108 682.196c-0.546 0.39-0.098 0.454-0.758 0.67 0 0-22.67 10.862-35.46-13.686 0 0-5.988-12.608 4.492-25.582l-98.846-97.166c0 0-19.228 9.17-30.706-0.314l-46.574 47.756c0 0 10.642 24.314-7.484 36.142 0 0-21.476 11.816-37.48-8.798 0 0-6.672-7.216-5.174-20.192l-129.55-126.952 7.828-6.2 129.288 124.326c0 0 11.25-14.204 35.696-5.674l46.258-47.194c0 0-13.292-17.114 5.674-35.894 0 0 12.878-13.516 35.042 0 0 0 15.664 15.448 5.3 34.516l97.112 98.294c0 0 17.876-10.376 31.548 5.852-0.002-0.002 18.836 22.192-6.206 40.096zM512.992 592.042c-8.666 0-15.69 7.024-15.69 15.692 0 8.666 7.024 15.688 15.69 15.688s15.692-7.024 15.692-15.688c0-8.668-7.026-15.692-15.692-15.692zM596.836 508.196c-8.66 0-15.692 7.024-15.692 15.692 0 8.666 7.032 15.69 15.692 15.69 8.668 0 15.692-7.024 15.692-15.69 0-8.668-7.024-15.692-15.692-15.692zM730.96 642.818c-8.386 0-15.196 6.802-15.196 15.196s6.808 15.192 15.196 15.192c8.394 0 15.194-6.8 15.194-15.192s-6.798-15.196-15.194-15.196z" />
<glyph unicode="&#xe919;" glyph-name="employee" d="M662.75 319.268c-33.17 31.414-123.546 62.44-123.546 62.44-6.006 22.518 18.8 65.898 18.8 65.898 33.528 45.932 15.548 138.85 15.548 138.85-7.504 76.55-102.966 75.588-102.966 75.588-82.562 0-101.104-60.58-101.104-60.58-24.020-46.532 8.824-151.606 8.824-151.606 28.52-27.018 27.28-65.864 27.28-65.864l-103.11-44.142c-78.224-33.26-47.176-121.226-47.176-121.226 25.39-34.018 105.894-33.044 105.894-33.044l176.944-0.972c149.072 3.818 151.354 30.734 151.354 30.734 22.408 69.2-26.742 103.924-26.742 103.924zM442.516 638.006c19.222 5.914 54.708 0 54.708 0 50.27-8.132 54.022-64.274 54.022-64.274-0.74 14.598-20.018 19.008-20.018 19.008s-97.584 1.324-116.062 1.324c-0.51 0-1.654-0.852-2.15-0.88-17.24-1.022-25.078-19.254-25.078-19.254-3.88 50.824 54.578 64.076 54.578 64.076zM390.272 488.46c0 0-2.99 19.202 0 19.862 0 0 14.086-2.688 14.086 31.812 0 0 1.694 31.866 25.35 31.866h89.694c0 0 18.746-5.508 17.762-25.714 0 0-3.1-21.85 9.036-32.556 0.52-0.456 5.032-0.9 5.596-1.304 0 0 1.116-3.144 0.624-16.45l0.030-7.512c0 0 0.508-7.958-5.036-9.396-0.428-0.114-0.894-0.188-1.396-0.214-7.026-0.37-10.722-5.178-11.090-17.374 0.016-3.162-2.036-34.078-32.178-67.858 0 0-24.97-12.958-51.146-2.174 0 0-26.358 4.608-45.21 70.030 0 0-1.576 14.146-11.556 15.622-0.004 0-4.318 5.448-4.566 11.36zM513.486 382.62l-42.928-47.314-38.334 45.494c-1.014 1.128-1.536 1.82-1.536 1.82l1.536-1.82c6.972-7.762 37.346-36.072 81.262 1.82zM434.802 211c-42.658-8.060-125.184 0.11-125.184 0.11-47.448 9.944-40.416 53.332-40.416 53.332-0.988 55.304 110.398 81.71 110.398 81.71l37.456-60.126c15.768-37.456 30.558-8.174 30.558-8.174l-12.812-66.852zM437.226 294.56l-35.796 61.134 19.094 10.196 37.766-45.366-21.064-25.964zM457.616 206l12.452 92.316 10.58-92.316h-23.032zM527.284 365.89l13.8-8.874-38.444-66.426-15.766 29.934 40.41 45.366zM630.782 211.11c0 0-82.526-8.17-125.184-0.11l-12.81 68.176c0 0 14.792-30.606 30.556 6.85l37.456 65.418c0 0 111.386-31.698 110.398-87.002 0 0 11.822-56.29-40.416-53.332zM469.236 691.116l13.982-11.596c0 0 100.768 61.942 151.040-25.292 0 0 8.714-34.55 1.322-65.598l10.348-13.152c0 0 5.606-45.522-12.136-41.086 0 0-14.318 0-14.318-14.784 0 0 7.392-18.21-11.828-32.998 0 0-28.404-64.354 54.392-77.66 0 0 85.902-13.492 94.084-62.88 0 0 14.784-61.006-23.656-71.354 0 0-20.702-13.462-1.48-22.334 0 0 12.662-11.050 45.45 37.43 0 0 22.766 65.276-33.62 108.554 0 0-31.356 20.986-107.1 36.434 0 0-35.88 17.458-7.292 50.968 0 0 9.91 10.166 9.91 21.010 0 0 17.742-5.916 23.658 26.614 0 0 12.808 58.156-3.946 61.114 0 0 2.932 50.27-12.838 79.84 0 0-34.838 50.916-88.064 47.958 0 0.002-40.124 4.916-87.908-31.188z" />
<glyph unicode="&#xe91a;" glyph-name="dashboard" d="M738.040 575.64c-213.618 204.808-423.728 26.020-423.728 26.020-139.928-117.46-67.326-327.648-67.326-327.648 11.67-55.080 61.532-51.204 61.532-51.204l394.022-1.39c68.28-0.016 86.722 52.502 86.722 52.502 45.328 192.41-51.222 301.72-51.222 301.72zM758.956 309.012c0 0-7.586-67.012-97.204-57.012h-309.062c0 0-74.666-6.95-83.192 57.042 0 0-47.030 176.15 62.726 265.81 0 0 191.272 160.21 376.824-13.374 0 0.002 85.46-105.594 49.908-252.466zM530.346 420.77l91.366 89.226 30.236-28.958-91.364-94.408c0 0 12.006-41.546-30.238-61.818 0 0-40.198-10.296-54.314 12.206 0 0-22.008 26.592-5.33 60.908 0.002 0 18.024 30.454 59.644 22.844z" />
<glyph unicode="&#xe91b;" glyph-name="contact" d="M717.146 664.166h-410.294c-29.81-0.010-53.972-24.176-53.986-53.986v-349.832c0.014-29.808 24.176-53.97 53.986-53.984h410.294c29.812 0.014 53.974 24.176 53.988 53.984v349.834c-0.012 29.81-24.176 53.976-53.988 53.984zM306.852 642.572h410.294c17.868-0.050 32.342-14.526 32.392-32.39v-45.022h-475.078v45.022c0.052 17.864 14.528 32.34 32.392 32.39zM717.146 227.958h-410.294c-17.866 0.050-32.34 14.526-32.392 32.39v283.218h475.080v-283.216c-0.052-17.866-14.526-32.34-32.394-32.392zM407.698 362.824c30.83 0 55.822 24.996 55.822 55.822 0 30.834-24.992 55.822-55.822 55.822s-55.822-24.99-55.822-55.822c0.042-30.808 25.010-55.776 55.822-55.822zM407.698 452.77c18.902 0 34.228-15.326 34.228-34.228 0-18.904-15.326-34.23-34.228-34.23-18.904 0-34.226 15.326-34.226 34.23 0.006 18.9 15.324 34.216 34.226 34.228zM407.698 385.218c-22.84 0.168-44.76-8.996-60.68-25.374-16.196-16.518-25.050-38.974-25.050-63.38 0.016-5.956 4.842-10.78 10.796-10.796h149.866c5.956 0.018 10.78 4.842 10.796 10.796 0 24.406-8.854 46.864-25.050 63.38-15.916 16.378-37.834 25.542-60.678 25.374zM344.318 307.262c1.85 14.118 8.214 27.26 18.14 37.468 11.948 12.092 28.242 18.894 45.24 18.894 17 0 33.292-6.802 45.24-18.894 9.908-10.222 16.27-23.354 18.14-37.468h-126.76zM690.586 360.658h-136.586c-5.96 0-10.796-4.838-10.796-10.798 0-5.958 4.836-10.796 10.796-10.796h136.586c5.962 0 10.796 4.84 10.796 10.796 0 5.96-4.834 10.798-10.796 10.798zM690.586 297.818h-136.586c-5.96 0-10.796-4.832-10.796-10.798 0-5.962 4.836-10.796 10.796-10.796h136.586c5.962 0 10.796 4.834 10.796 10.796 0 5.966-4.834 10.798-10.796 10.798zM690.586 486.34h-136.586c-5.96 0-10.796-4.834-10.796-10.796 0-5.966 4.836-10.796 10.796-10.796h136.586c5.962 0 10.796 4.83 10.796 10.796 0 5.96-4.834 10.796-10.796 10.796zM690.586 423.5h-136.586c-5.96 0-10.796-4.838-10.796-10.796 0-5.966 4.836-10.796 10.796-10.796h136.586c5.962 0 10.796 4.83 10.796 10.796 0 5.958-4.834 10.796-10.796 10.796z" />
<glyph unicode="&#xe91c;" glyph-name="calender" d="M729.688 666.898h-61.186v22.894c0 17.066-13.734 19.144-13.734 19.144-19.146 0-17.898-19.144-17.898-19.144v-22.894h-252.236v29.136c-2.498 13.318-15.818 12.902-15.818 12.902-18.314-4.994-14.152-16.232-14.152-16.232v-25.806h-58.272c-64.932-6.66-65.764-65.766-65.764-65.766v-340.478c4.994-66.598 65.764-71.59 65.764-71.59h430.384c59.106 4.16 66.596 64.1 66.596 64.1v347.136c-12.486 69.096-63.684 66.598-63.684 66.598zM761.74 253.994c0 0-9.99-34.546-38.294-34.546h-424.558c0 0-39.958 3.746-39.126 45.37v261.394h501.978v-272.218zM761.74 557.428h-501.562v43.704c0 0 12.072 34.964 39.542 37.46h54.942v-34.13c0 0-0.834-15.816 16.65-16.65 0 0 9.156-1.248 13.32 16.234v34.546h251.404v-34.13c0 0 0.416-14.984 17.064-15.816 0 0 12.902-0.834 14.568 15.816v34.13h60.772c0 0 31.632-9.99 33.298-37.46v-43.704zM315.538 484.588h89.908v-85.746h-89.908v85.746zM464.55 484.588h89.908v-85.746h-89.908v85.746zM616.892 484.588h89.906v-85.746h-89.906v85.746zM316.37 350.56h89.906v-85.744h-89.906v85.744zM465.382 350.56h89.908v-85.744h-89.908v85.744zM617.722 350.56h89.908v-85.744h-89.908v85.744z" />
<glyph unicode="&#xe91d;" glyph-name="attendence" d="M732 624v28h-18v-28h-52v28h-18v-28h-50v28h-18v-28h-58v28h-18v-28h-46v28h-16v-28h-58v28h-18v-28h-52v28h-18v-28h-66v-406h572v406h-66zM780 234h-536v312h536v-312zM780 562h-536v42h48v-14h18v14h52v-14h18v14h58v-14h16v14h46v-14h18v14h58v-14h18v14h50v-14h18v14h52v-14h18v14h48v-42zM274 514v-118h146v118h-146zM406 408h-120v94h120v-94zM438 514v-118h142v118h-142zM570 408h-122v94h122v-94zM604 514v-118h146v118h-146zM738 408h-120v94h120v-94zM274 380v-114h146v114h-146zM406 276h-120v92h120v-92zM438 380v-114h142v114h-142zM570 276h-122v92h122v-92zM604 380v-114h146v114h-146zM738 276h-120v92h120v-92zM304.486 455.316l15.962 8.708 10.884-15.964 47.162 32.652 10.882-16.326-61.672-40.994zM467.014 455.316l15.962 8.708 10.884-15.964 47.164 32.652 10.884-16.326-61.674-40.994zM304.486 327.616l15.962 8.706 10.884-15.964 47.162 32.652 10.882-16.324-61.672-40.996zM629.542 327.616l15.964 8.706 10.882-15.964 47.164 32.652 10.884-16.324-61.674-40.996zM643.328 474.182l14.514 13.784 19.59-21.040 17.412 21.040 11.61-15.236-18.138-17.414 18.138-20.316-16.69-11.608-14.874 20.316-18.502-20.316-13.060 11.608 17.416 20.316-17.416 16.688zM474.996 340.674l14.512 13.786 19.59-21.040 17.412 21.040 11.61-15.238-18.138-17.412 18.138-20.316-16.686-11.61-14.876 20.316-18.502-20.316-13.060 11.61 17.414 20.316-17.414 16.69z" />
<glyph unicode="&#xe91e;" glyph-name="apps" d="M672 472.38v142.71l-159.134 65.176-164.866-68.546v-139.34l-124-52.808v-188.792l162.76-68.546 133.21 56.186 123.036-56.186 158.994 67.422v189.916l-130 52.808zM790 243.14l-145.242-64.050-124.874 56.186-132.2-56.186-145.684 64.050v166.308l122 53.94v134.846l151.428 64.052 144.572-58.434v-140.464l130-53.94v-166.308zM519.742 631.946l-85.964-39.33 84.28-41.576 84.278 41.576-82.594 39.33zM466.216 592.184l52.876 24.192 50.802-24.192-51.84-25.576-51.838 25.576zM659.424 430.124l-85.962-39.328 84.28-41.578 84.278 41.578-82.596 39.328zM605.898 390.362l52.876 24.192 50.804-24.192-51.84-25.578-51.84 25.578zM385.24 430.124l-85.964-39.328 84.278-41.578 84.278 41.578-82.592 39.328zM331.712 390.362l52.876 24.192 50.804-24.192-51.84-25.578-51.84 25.578zM534 519.294v-108.158l88 52.252v103.382l-88-47.476zM610 471.378l-64-35.922v74.358l64 32.64v-71.076zM660 322.082v-108.156l88 52.252v103.38l-88-47.476zM736 274.166l-64-35.924v74.358l64 32.642v-71.076zM404 322.082v-108.156l88 52.252v103.38l-88-47.476zM480 274.166l-64-35.924v74.358l64 32.642v-71.076z" />
<glyph unicode="&#xe91f;" glyph-name="appriasal" d="M758.334 527.086l-147.776 18.202-69.054 140.16c-41.588 53.472-63.352 0-63.352 0l-69.054-141.458-150.016-20.794c-43.074-20.792-15.96-55.55-15.96-55.55l113.044-111.016-28.22-159.852c5.942-51.988 48.666-26.374 48.666-26.374l136.648 69.99c0 0 72.196-44.508 129.22-68.322 1.6-0.668 3.292-0.876 4.87-1.23 53.23-11.894 45.658 34.852 45.658 34.852l-26.924 149.638 114.534 111.396c35.648 43.074-22.284 60.358-22.284 60.358zM627.626 366.108l33.406-166.896-147.772 80.75-152.042-79.456 31.946 170.058-128.258 121.956 2.592 0.566 164.284 21.548 79.1 158.714 78.926-160.198 167.244-20.066-129.426-126.976z" />
<glyph unicode="&#xe920;" glyph-name="discuss_app" d="M476.904 310.708c0 0 73.346-70.74 166.846-46.136 0 0 24.888-31.984 74.572-55.36 0 0-14.292 39.368-10.6 75.042 0 0 89.81 27.068 68.896 116.876 0 0-8.648 47.082-46.986 61.196l6.592 22.396c0 0 49.802-25.358 60.27-84.412 0 0 22.36-86.524-72.574-128.56 0 0 4.716-51.464 13.946-64.792 0 0 11.276-19.128-10.664-20.328 0 0-56.796 18.074-89.396 60.518 0 0-122.41-21.124-181.668 63.562h20.766zM722.258 561.904c0 0-30.734 96.78-156.22 137.788 0 0-155.83 44.29-280.496-56.592 0 0-101.702-74.634-41.008-202.58 0 0 16.404-43.47 75.456-86.938 0 0-13.122-45.108-31.986-67.254 0 0-16.404-36.91 23.784-36.088 0 0 80.378 23.784 132.868 73.816 0 0 108.608-20.070 213.244 53.31-0.004 0.002 93.45 79.556 64.358 184.538zM629.31 379.83c0 0-81.312-54.13-191.214-36.088 0 0-53.312-54.132-122.206-73.816 0 0-19.068-1.436-8.612 12.712 0 0 27.68 30.756 35.062 69.508 0 0 2.666 13.942-7.586 16.198 0 0-77.096 37.728-87.758 130.408 0 0-36.088 100.88 123.846 173.876 0 0 89.398 33.628 191.1 7.382 0 0 97.844-24.652 140.248-119.744-0.002 0 39.598-92.676-72.88-180.436z" />
<glyph unicode="&#xe921;" glyph-name="sun" d="M23.232 447.958l164.768-66.394v116.436zM171.914 797.218l67.826-160 83.478 80zM519.652 936.594l-67.738-162.594h114.086zM855.39 790.26l-149.564-73.042 81.738-80zM1001.042 448.218l-163.042 49.782v-116zM855.39 110.262l-74.78 147.826-74.784-80zM572 124l-60-165.216-60.086 165.216zM323.218 170.87l-75.652 87.218-75.652-153.046zM763.044 439.39c0-138.984-112.668-251.652-251.652-251.652s-251.652 112.668-251.652 251.652c0 138.984 112.668 251.652 251.652 251.652s251.652-112.668 251.652-251.652z" />
<glyph unicode="&#xe922;" glyph-name="discuss" d="M424 236h76c0 0 74-74 240-49 0 0 43-58 72-69 0 0-10 66-8 85 0 0 108.664 29.666 116.664 125.666 0 0 10.668 85.334-60 130.666 0 0 8.004 20.452 18.668 59.56 0 0 96.010-48.894 96.010-154.226 0 0 26.658-123.998-116.010-191.998 0 0 8-78.668 22.668-105.334 0 0 22.664-33.048-17.336-33.048 0 0-79.996 22.382-145.332 98.382 0 0-190.664-37.336-295.332 103.332zM598 849.998c0 0-166.666 42.668-313.334-14.664 0 0-231.142-85.334-218.904-268 0 0-2.428-159.996 149.572-253.33 0 0 31.302 11.184-41.682-123.742 0 0-23.652-28.55 12.348-41.738 0 0 9.334 0.142 24 5.476 0 0 117.334 40 190.666 116 0 0 128-22.664 261.334 34.668 0 0 181.512 67.996 188.090 266.664 0 0 14.574 185.334-252.090 278.666zM788.67 550c-20-137.332-146.668-188-146.668-188-101.334-60-265.334-32-265.334-32-48-49.334-120-94.666-120-94.666 16 26.666 22.666 113.334 22.666 113.334-133.334 53.334-146.668 159.022-146.664 159.022-38.668 173.69 106.666 242.31 106.666 242.31 212 118.666 398.666 18.666 398.666 18.666 177.332-73.332 150.668-218.666 150.668-218.666z" />
<glyph unicode="&#xe923;" glyph-name="top_show" d="M524 938h-428c0 0-72-15.564-72-74.696v-825.304c0 0 1.826-68 74.87-78h825.13c0 0 70 11.13 78 75.478v396.522c0 0 4.696 68-52.696 64h-31.304c0 0-44-1.39-46-37.914v-364.086l-716-1.13v713.13l357.046-0.086c0 0 29.302 0 43.214 27.826l3.476 66.086c0.002 0-3.65 34.608-35.736 38.174zM429.61 696.826c0 0-2.044 47.174 37.956 47.174h56.434c0 0 24.968-4.342 32.114-24.188 1.192-3.314 1.886-7.060 1.886-11.29 0-29.566 0-110.522 0-110.522l332.174 320.956c0 0 46.958 43.478 93.914 0 0 0 48.698-31.478 0-90.608l-328.698-332.348h118.61c0 0 34-4.87 34-34.434v-65.566c0 0-10-24-34.348-28h-269.652c0 0-70.642 3.13-74.408 64l0.018 264.826z" />
<glyph unicode="&#xe924;" glyph-name="top_hide" d="M100 940h412c0 0 40-5.392 42-33.218v-58.782c0 0-2.762-36-41.12-38h-358.88l0.522-718h715.478v356c0 0 2.782 44 37.564 44h58.436c0 0 38 6.024 38-42.64v-411.36c0 0 0.958-56-66.87-80h-837.13c0 0-68 6.174-78 65.304v852.696c0 0 32.174 65.914 78 64zM443.652 475.566l330 328.434h-107.652c0 0-36.696 8.87-43.652 36.696l-1.738 59.13c0 0 5.216 40.494 41.738 40.214l264.348-0.278c0 0 57.304-5.154 77.304-67.762v-278c0 0-12.958-28.086-33.826-36.782l-67.478 3.478c0 0-30.696 5.218-32.696 34.784v112.52l-334.61-331.652c0 0-59.13-26.088-81.738 0 0 0-61.17 48.292-10 99.218z" />
<glyph unicode="&#xe925;" glyph-name="theme_setting" d="M963.334 347.334c-84 25.334-76 114.666-76 114.666 5.334 68 80 90.666 80 90.666 25.334 20 19.796 40 19.796 40-12.204 66.666-43.042 100.202-43.042 100.202-22.608 24.348-41.74 1.74-41.74 1.74-92.174-27.826-135.652 27.826-135.652 27.826-34.784 50.434-13.912 114.784-13.912 114.784 24.346 59.13-96.784 86.782-96.784 86.782-2.382 0-5.434 0-9.304 0-31.304 0-40-37.652-40-37.652-19.13-53.914-104.348-61.304-104.348-61.304-76.522 19.13-92.172 80-92.172 80-15.652 27.826-41.74 18.088-41.74 18.088-64.348-13.216-99.268-47.652-99.268-47.652-19.268-13.914-12.032-26.084-12.032-26.084l10.44-34.776c8.696-52.174-20.86-92.16-20.86-92.16-66.716-47.46-64.716-34.46-112.988-31.22-41.74 31.304-57.316 0.108-57.316 0.108-33.044-31.304-39.24-105.872-39.24-105.872 0.304-31.192 23.494-34.142 23.494-34.142 82.666-37.334 80-103.348 80-103.348-2.666-63.346-72-95.318-72-95.318-33.334-5.334-31.494-32-31.494-32 0.304-60 36.828-110.666 36.828-110.666 21.334-21.332 44-10.668 44-10.668 92 26.666 117.334-18.666 117.334-18.666 50.666-46.666 16-113.334 16-113.334-17.334-26.668 5.334-46.666 5.334-46.666 37.334-36 112-47.8 112-47.8 38.666 0 44 37.134 44 37.134 48 81.334 114.666 62.666 114.666 62.666 54.666-9.334 84-70.666 84-70.666 9.334-41.33 46.666-29.132 46.666-29.132 54.666 10.866 90.668 42.466 90.668 42.466 21.334 16 10.666 45.334 10.666 45.334-30.666 65.334 6.666 113.33 6.666 113.33 52 57.334 136 24 136 24 32-10.666 50.668 21.334 50.668 21.334 16 20 34.462 76 34.462 76 9.132 42.668-23.796 52-23.796 52zM511 224c-124.264 0-225 100.736-225 225s100.736 225 225 225 225-100.736 225-225-100.736-225-225-225z" />
<glyph unicode="&#xe926;" glyph-name="search" d="M977.13 87.652l-205.216 206.958c116.524 173.914 57.39 330.434 57.39 330.434-60.868 229.564-274.782 288.696-274.782 288.696-260.87 59.13-400-104.348-400-104.348-165.218-182.612-109.564-360.272-109.564-360.272 44.958-245.49 257.39-305.814 257.39-305.814 217.39-73.042 363.478 45.216 363.478 45.216l213.912-208.696c53.912-27.826 90.436 17.39 90.436 17.39 43.478 41.74 6.956 90.436 6.956 90.436zM439.216 261.918c-143.114 0-259.13 116.016-259.13 259.13s116.016 259.13 259.13 259.13c143.116 0 259.13-116.016 259.13-259.13 0.002-143.114-116.014-259.13-259.13-259.13z" />
<glyph unicode="&#xe927;" glyph-name="moon" d="M394.522 934.684c0 0-137.392-179.206-26.086-412.25 0 0 53.916-158.262 276.522-233.044 0 0 162.608-52.176 352.608 48.696 0 0-86.522-266.088-307.39-340.87 0 0-253.912-99.128-486.956 81.74 0 0-213.914 182.608-166.958 467.826-0.002 0 58.78 312.586 358.26 387.902zM474 814l86 16 36 76 34-76 92-16-62-60 10-84-72 36-84.456-36 24.456 82zM712.034 491.704l65.17 12.124 27.28 57.59 25.766-57.59 69.716-12.124-46.984-45.468 7.58-63.656-54.562 27.282-64.002-27.282 18.536 62.138zM823.598 750.020l52.988 9.858 22.182 46.826 20.948-46.826 56.686-9.858-38.2-36.968 6.162-51.758-44.364 22.182-52.040-22.182 15.072 50.524z" />
<glyph unicode="&#xe928;" glyph-name="expand" d="M0 618h116v228h230v114h-346zM342-66v116h-228v230h-114v-346zM1024 618h-116v228h-230v114h346zM682-66v116h228v230h114v-346z" />
<glyph unicode="&#xe929;" glyph-name="compress" d="M0 736h220v224h144v-362h-364zM1024 736h-220v224h-144v-362h364zM1024 160h-220v-224h-144v362h364zM224-64v220h-224v144h362v-364z" />
<glyph unicode="&#xe92a;" glyph-name="bookmark" d="M866 946h-698c-75.218 0-78-68-78-68v-866.87c30-102.608 127.044-48.696 127.044-48.696l294.956 285.218 296.436-283.478c95.652-57.39 129.564 45.826 129.564 45.826v854c-2 82.434-72 82-72 82zM852 46l-338 316.436-338-316.436v818h676v-818z" />
<glyph unicode="&#xe92b;" glyph-name="bars" d="M102 826h822c0 0 74-7.914 82.696-89.652 0 0 5.218-80-73.042-97.392l-831.654-6.956c0 0-81.39 23.566-84.87 97 0 0-9.39 77.086 84.87 97zM102 544h822c0 0 74-7.914 82.696-89.652 0 0 5.218-80-73.042-97.39l-831.654-6.958c0 0-81.39 23.566-84.87 97 0 0-9.39 77.086 84.87 97zM102 258h822c0 0 74-7.914 82.696-89.652 0 0 5.218-80-73.042-97.39l-831.654-6.958c0 0-81.39 23.566-84.87 97 0 0-9.39 77.086 84.87 97z" />
<glyph unicode="&#xe92c;" glyph-name="activity" d="M271.238 686.856c7.236 1.074 14.39 2.14 21.544 3.196 13.424 1.982 26.846 3.982 40.276 5.928 5.398 0.784 10.84 1.296 16.208 2.232 2.798 0.488 3.826-0.636 4.4-3.080 1.578-6.704 2.072-13.564 3.072-20.352 1.14-7.75 2.284-15.5 3.45-23.246 1.334-8.858 2.732-17.708 4.028-26.572 0.496-3.394-2.376-3.486-4.416-3.828-6.072-1.020-12.196-1.722-18.292-2.616-18.83-2.76-37.646-5.6-56.48-8.318-17.034-2.458-34.036-5.148-51.074-7.52-19.678-2.74-39.328-5.654-58.978-8.574-17.706-2.63-35.448-5.016-53.168-7.55-2.638-0.378-3.876 0.746-3.48 3.25 2.282 14.416 2.112 29.042 3.802 43.522 1.298 11.116 1.624 22.344 2.706 33.504 1.578 16.304 2.818 32.644 4.106 48.974 1.002 12.712 1.766 25.442 2.808 38.15 1.214 14.792 2.662 29.566 3.92 44.356 0.726 8.51 1.512 17.028 1.808 25.558 0.132 3.83 1.498 4.928 5.068 4.578 11.704-1.152 23.404-2.474 35.138-3.142 9.24-0.528 18.392-2.042 27.678-2.026 10.218 0.018 10.75-1.036 9.324-11.286-1.058-7.61-1.552-15.312-1.978-22.992-0.548-9.938-1.422-19.84-2.528-29.726-0.078-0.698-0.14-1.406-0.108-2.104 0.042-0.916-0.446-2.152 0.824-2.532 0.892-0.266 1.486 0.624 2.062 1.208 4.924 5.006 10.042 9.8 15.25 14.52 16.028 14.534 33.056 27.714 51.108 39.666 18.85 12.48 38.664 23.236 59.176 32.524 15.764 7.136 32.006 13.294 48.692 18.264 14.254 4.248 28.62 8.050 43.164 10.886 13.432 2.62 27.006 4.854 40.734 5.678 6.992 0.42 14.22 0.040 20.904 1.74 11.148 2.836 22.356 1.88 33.336 1.128 7.922-0.542 15.948-1.902 23.964-2.508 14.118-1.068 28.122-3.022 42.024-5.594 9.216-1.706 18.38-3.796 27.45-6.168 17.488-4.576 34.642-10.176 51.416-17 22.494-9.152 44.040-20.082 64.718-32.8 22.526-13.854 43.362-29.832 62.886-47.682 24.144-22.074 45.782-46.298 64.272-73.234 12.94-18.852 24.264-38.686 34.044-59.424 7.244-15.354 13.484-31.090 18.99-47.090 5.332-15.49 9.486-31.372 12.694-47.47 4.050-20.348 6.144-40.908 8.058-61.562 1.032-11.112 1.92-22.148 1.984-33.284 0.048-9.064-2.41-17.824-2.84-26.91-0.734-15.486-3.208-30.884-6.202-46.156-2.696-13.752-6.274-27.26-10.068-40.742-5.292-18.796-12.654-36.796-20.59-54.548-6.802-15.218-14.984-29.752-23.562-44.070-12.218-20.398-26.252-39.47-41.842-57.342-14.778-16.938-30.796-32.706-48.012-47.21-13.958-11.762-28.566-22.68-44.030-32.368-15.060-9.438-30.48-18.23-46.612-25.834-15.102-7.118-30.544-13.312-46.212-18.942-12.112-4.35-24.622-7.518-37.108-10.654-13.042-3.276-26.302-5.55-39.6-7.356-9.556-1.294-19.182-2.276-28.834-2.958-12.77-0.906-25.422-3.062-38.334-2.458-9.052 0.426-17.792 2.812-26.906 3.014-14.986 0.332-29.776 3.138-44.538 5.616-8.96 1.502-17.812 3.79-26.61 6.106-16.108 4.24-31.976 9.174-47.484 15.388-15.214 6.096-30.096 12.778-44.596 20.404-22.766 11.97-44.282 25.828-64.386 41.87-22.998 18.35-43.92 38.778-62.986 61.224-15.31 18.030-28.904 37.218-40.812 57.56-11.536 19.71-21.48 40.232-29.668 61.636-5.668 14.818-10.698 29.794-14.738 45.104-4.646 17.606-8.050 35.454-10.294 53.554-1.398 11.278-1.106 22.776-3.29 33.838-2.208 11.196-0.786 22.274-1.464 33.378-0.346 5.634 2.71 10.74 2.55 16.39-0.048 1.732 1.55 1.956 3.174 1.664 15.7-2.832 31.39-5.744 47.126-8.362 10.77-1.792 21.592-3.32 32.434-4.62 3.532-0.422 4.968-1.638 4.884-5.224-0.166-7.164-0.22-14.34-0.024-21.502 0.476-17.372 2.276-34.572 5.48-51.706 2.842-15.202 6.568-30.108 11.376-44.758 6.92-21.088 16.022-41.192 26.99-60.514 9.166-16.148 19.502-31.462 31.264-45.782 15.36-18.702 32.416-35.694 51.412-50.802 19.746-15.708 40.938-28.958 63.568-40.028 23.148-11.32 47.342-19.662 72.468-25.208 16.944-3.74 34.074-6.272 51.458-7.332 16.298-0.996 32.552-1.018 48.78 0.298 37.316 3.028 73.266 11.962 107.482 27.090 29.096 12.866 56.028 29.404 80.494 49.94 29.408 24.684 53.934 53.43 73.578 86.374 15.748 26.41 27.806 54.464 35.588 84.172 4.814 18.378 8.416 37.040 9.97 56.132 1.11 13.61 1.634 27.176 1.336 40.762-0.356 16.1-2.096 32.086-4.882 48.002-4.644 26.512-12.164 52.144-23.026 76.692-12.182 27.528-27.634 53.154-46.716 76.57-23.074 28.31-49.754 52.532-80.616 72.054-22.104 13.984-45.42 25.466-70.198 34.080-21.138 7.35-42.77 12.556-64.846 15.666-20.438 2.88-41.090 3.784-61.722 2.706-30.65-1.602-60.64-7.202-89.736-16.946-25.054-8.39-48.902-19.55-71.278-33.69-22.016-13.912-42.43-29.852-60.664-48.5-1.096-1.116-2.892-1.874-2.67-4.344zM465.562 566.996c0 42.020-0.002 84.042 0 126.062 0 5.376 0.012 5.382 5.432 5.384 24.876 0.006 49.75 0.010 74.626 0.010 5.626 0 5.952-0.338 5.952-6.012-0.004-74.484 0.022-148.97-0.096-223.456-0.006-3.844 1.16-6.5 3.814-9.21 15.72-16.054 31.31-32.238 46.858-48.462 16.904-17.638 33.762-35.322 50.548-53.076 19.392-20.51 38.772-41.034 58.674-61.050 2.212-2.228 2.164-3.38-0.138-5.642-16.856-16.532-33.58-33.2-50.204-49.964-2.46-2.482-3.862-2.572-6.334-0.028-27.218 28.004-54.572 55.878-81.842 83.838-17.75 18.198-35.428 36.466-53.122 54.72-17.3 17.852-34.548 35.752-51.912 53.542-1.886 1.932-2.274 3.958-2.272 6.44 0.038 42.302 0.028 84.604 0.028 126.906 0-0.002-0.006-0.002-0.012-0.002z" />
</font>
</defs>
</svg>
