<?xml version="1.0" encoding="utf-8"?>
<!-- Generator: Adobe Illustrator 24.0.0, SVG Export Plug-In . SVG Version: 6.00 Build 0)  -->
<svg version="1.1" id="Layer_1" xmlns="http://www.w3.org/2000/svg" xmlns:xlink="http://www.w3.org/1999/xlink" x="0px" y="0px"
	 viewBox="0 0 512 512" enable-background="new 0 0 512 512" xml:space="preserve">
<path fill="#555555" d="M431,189v-28L316,38H80v368c0,57,52,68,52,68h299V335h-27v111H144c-41,2-37-37-37-37V66h188l1,115l108-1v9
	H431z M323,152V87l63,65H323z"/>
<rect x="148" y="155" fill="#555555" width="107" height="22"/>
<rect x="148" y="266" fill="#555555" width="130" height="22"/>
<rect x="148" y="323" fill="#555555" width="130" height="22"/>
<rect x="255" y="389" fill="#555555" width="108" height="22"/>
<rect x="148" y="212" fill="#555555" width="215" height="22"/>
<path fill="#555555" d="M460,223l-12-11c-22-15-37,0-37,0l-96,99l-18,52c-2,19,15,15,15,15l51-20l97-102C472,241,460,223,460,223z
	 M326,349l4-12l8,8L326,349z M355,334l-15-16l56-58l16,17L355,334z M427,260l-15-16l19-19l15,15L427,260z"/>
</svg>
