<?xml version="1.0" encoding="utf-8"?>
<!-- Generator: Adobe Illustrator 24.0.0, SVG Export Plug-In . SVG Version: 6.00 Build 0)  -->
<svg version="1.1" id="Layer_1" xmlns="http://www.w3.org/2000/svg" xmlns:xlink="http://www.w3.org/1999/xlink" x="0px" y="0px"
	 viewBox="0 0 512 512" enable-background="new 0 0 512 512" xml:space="preserve">
<g>
	<path fill="#555555" d="M387.559,104.631H178.634l17.507-42.795c3.724-9.132,1-19.574-6.691-25.744
		c-7.701-6.166-18.538-6.508-26.639-0.879L21.344,133.474c-6.197,4.304-9.795,11.457-9.563,18.995
		c0.231,7.533,4.261,14.446,10.71,18.359l147.925,89.823c8.417,5.108,19.18,4.093,26.481-2.499
		c7.312-6.591,9.427-17.312,5.219-26.202l-19.443-41.132h204.886c15.119,0,27.418,12.536,27.418,27.654v149.852
		c0,15.118-12.299,27.19-27.418,27.19h-226.74c-20.226,0-36.623,16.396-36.623,36.622v12.942c0,20.228,16.397,36.624,36.623,36.624
		h226.74c62.642,0,113.604-50.732,113.604-113.379v-149.85C501.165,155.826,450.201,104.631,387.559,104.631z"/>
</g>
</svg>
